<svg width="180" height="61" viewBox="0 0 180 61" fill="none" xmlns="http://www.w3.org/2000/svg">
<g clip-path="url(#clip0_1230_4986)">
<path d="M165.666 0.000195547H14.3422C13.7906 0.000195547 13.2456 0.000195548 12.6955 0.00320397C12.235 0.00621239 11.7781 0.0149519 11.3132 0.0223074C10.3031 0.0341934 9.29543 0.123054 8.29888 0.288117C7.30373 0.456773 6.33976 0.774737 5.43956 1.23126C4.54046 1.69164 3.71893 2.28986 3.00477 3.00421C2.28686 3.71655 1.68842 4.53993 1.23248 5.44267C0.775271 6.34362 0.458244 7.30906 0.292343 8.30567C0.124866 9.30101 0.0347448 10.3078 0.0227888 11.3171C0.00882972 11.7783 0.00735559 12.241 0 12.7023V47.471C0.00735559 47.938 0.00882972 48.3905 0.0227888 48.8577C0.0347485 49.8669 0.12487 50.8737 0.292343 51.869C0.457785 52.8662 0.774831 53.8322 1.23248 54.7335C1.68821 55.6333 2.28673 56.4533 3.00477 57.1617C3.71622 57.8792 4.53828 58.4779 5.43956 58.9347C6.33975 59.3925 7.30362 59.7123 8.29888 59.8836C9.2956 60.0473 10.3032 60.1362 11.3132 60.1495C11.7781 60.1598 12.235 60.1656 12.6955 60.1656C13.2456 60.1686 13.7906 60.1686 14.3422 60.1686H165.666C166.207 60.1686 166.756 60.1686 167.296 60.1656C167.755 60.1656 168.225 60.1598 168.683 60.1495C169.691 60.1369 170.697 60.048 171.692 59.8836C172.69 59.7111 173.657 59.3913 174.562 58.9347C175.462 58.4776 176.284 57.879 176.995 57.1617C177.711 56.4506 178.311 55.6311 178.772 54.7335C179.226 53.8315 179.54 52.8656 179.703 51.869C179.871 50.8736 179.964 49.867 179.982 48.8577C179.988 48.3905 179.988 47.938 179.988 47.471C180 46.9245 180 46.381 180 45.8257V14.3445C180 13.7937 180 13.2472 179.988 12.7023C179.988 12.241 179.988 11.7783 179.982 11.317C179.964 10.3077 179.871 9.30109 179.703 8.30561C179.54 7.30958 179.226 6.34421 178.772 5.44261C177.843 3.63316 176.371 2.16028 174.562 1.23112C173.657 0.775718 172.69 0.457837 171.692 0.287981C170.697 0.122191 169.691 0.0332999 168.683 0.0220969C168.225 0.0147563 167.755 0.00594163 167.296 0.00300842C166.756 0 166.207 0.000195547 165.666 0.000195547Z" fill="#A6A6A6"/>
<path d="M12.7028 58.8525C12.2445 58.8525 11.7973 58.8466 11.3426 58.8364C10.4006 58.8241 9.46085 58.7421 8.53099 58.591C7.66395 58.4417 6.82402 58.164 6.03891 57.7669C5.26099 57.3731 4.55147 56.8568 3.93752 56.2377C3.31469 55.6259 2.79615 54.9163 2.40246 54.1371C2.00443 53.3528 1.72897 52.5121 1.58567 51.6443C1.43093 50.7119 1.3472 49.769 1.33522 48.8239C1.32569 48.5067 1.3132 47.4504 1.3132 47.4504V12.7023C1.3132 12.7023 1.3265 11.6623 1.3353 11.3567C1.34677 10.4131 1.43001 9.47172 1.58429 8.54073C1.72785 7.67057 2.00352 6.82746 2.40177 6.04058C2.79401 5.26187 3.30967 4.55175 3.92875 3.93776C4.54714 3.31794 5.25893 2.79896 6.03817 2.39975C6.82148 2.00397 7.65982 1.72816 8.52511 1.58155C9.45802 1.42898 10.401 1.34648 11.3463 1.33477L12.7036 1.31641H167.289L168.663 1.33551C169.599 1.34664 170.534 1.42839 171.458 1.58008C172.332 1.72852 173.179 2.00626 173.971 2.40416C175.533 3.20868 176.803 4.48151 177.604 6.04425C177.996 6.8257 178.267 7.66193 178.409 8.52457C178.565 9.4632 178.653 10.412 178.671 11.3633C178.675 11.7893 178.675 12.2469 178.675 12.7023C178.687 13.2664 178.687 13.8033 178.687 14.3446V45.8257C178.687 46.3722 178.687 46.9054 178.675 47.443C178.675 47.9322 178.675 48.3803 178.669 48.8415C178.652 49.7759 178.566 50.7077 178.412 51.6296C178.272 52.5036 177.998 53.3508 177.6 54.1416C177.203 54.9124 176.688 55.6158 176.072 56.226C175.458 56.8484 174.747 57.3677 173.967 57.764C173.177 58.1641 172.331 58.4429 171.458 58.591C170.528 58.7429 169.588 58.8249 168.646 58.8364C168.206 58.8466 167.744 58.8525 167.296 58.8525L165.666 58.8555L12.7028 58.8525Z" fill="#3A3A3A"/>
<path d="M37.2576 30.5367C37.2738 29.2812 37.6073 28.0502 38.227 26.9582C38.8468 25.8662 39.7327 24.9487 40.8024 24.2911C40.1229 23.3207 39.2264 22.522 38.1843 21.9586C37.1421 21.3952 35.9829 21.0826 34.7988 21.0455C32.2729 20.7804 29.8241 22.557 28.5369 22.557C27.2249 22.557 25.2431 21.0719 23.109 21.1158C21.7286 21.1604 20.3833 21.5618 19.2042 22.2809C18.0251 23 17.0524 24.0122 16.3808 25.2191C13.4716 30.2558 15.6416 37.6581 18.4283 41.7294C19.8226 43.723 21.4521 45.9499 23.5842 45.8709C25.6706 45.7844 26.4499 44.5405 28.9684 44.5405C31.4635 44.5405 32.1946 45.8709 34.37 45.8207C36.6088 45.7844 38.0194 43.8183 39.3647 41.8058C40.3665 40.3853 41.1374 38.8153 41.6488 37.154C40.3481 36.6039 39.2381 35.683 38.4572 34.5063C37.6763 33.3295 37.2591 31.949 37.2576 30.5367Z" fill="white"/>
<path d="M33.1487 18.3678C34.3694 16.9024 34.9708 15.0189 34.8251 13.1172C32.9602 13.3131 31.2375 14.2044 30.0003 15.6136C29.3954 16.302 28.9321 17.1029 28.6369 17.9705C28.3417 18.8381 28.2204 19.7553 28.2799 20.6698C29.2127 20.6794 30.1355 20.4773 30.9789 20.0785C31.8223 19.6798 32.5641 19.0948 33.1487 18.3678Z" fill="white"/>
<path d="M63.6316 40.8238H56.5115L54.8017 45.8727H51.7859L58.5299 27.1934H61.6631L68.4071 45.8727H65.3399L63.6316 40.8238ZM57.2489 38.4941H62.8927L60.1105 30.3002H60.0327L57.2489 38.4941Z" fill="white"/>
<path d="M82.9718 39.0635C82.9718 43.2956 80.7067 46.0146 77.2884 46.0146C76.4225 46.0599 75.5614 45.8604 74.8035 45.439C74.0457 45.0176 73.4219 44.3914 73.0035 43.6319H72.9388V50.3774H70.1434V32.2534H72.8492V34.5185H72.9006C73.3383 33.7627 73.9727 33.1397 74.7363 32.7157C75.4998 32.2918 76.3641 32.0828 77.237 32.1109C80.6934 32.1109 82.9718 34.8432 82.9718 39.0635ZM80.0985 39.0635C80.0985 36.3063 78.6736 34.4936 76.4996 34.4936C74.3637 34.4936 72.9271 36.3445 72.9271 39.0635C72.9271 41.8075 74.3637 43.6452 76.4996 43.6452C78.6736 43.6452 80.0985 41.8457 80.0985 39.0635Z" fill="white"/>
<path d="M97.9611 39.0645C97.9611 43.2965 95.6959 46.0155 92.2777 46.0155C91.4118 46.0608 90.5506 45.8614 89.7928 45.44C89.035 45.0186 88.4112 44.3923 87.9927 43.6329H87.9281V50.3783H85.1326V32.2544H87.8384V34.5195H87.8898C88.3275 33.7637 88.9619 33.1407 89.7255 32.7167C90.489 32.2928 91.3533 32.0837 92.2262 32.1119C95.6827 32.1119 97.9611 34.8441 97.9611 39.0645ZM95.0878 39.0645C95.0878 36.3072 93.6629 34.4945 91.4888 34.4945C89.353 34.4945 87.9163 36.3454 87.9163 39.0645C87.9163 41.8085 89.353 43.6461 91.4888 43.6461C93.6629 43.6461 95.0878 41.8467 95.0878 39.0645Z" fill="white"/>
<path d="M107.868 40.6681C108.075 42.5204 109.874 43.7367 112.333 43.7367C114.69 43.7367 116.385 42.5204 116.385 40.8502C116.385 39.4003 115.362 38.5322 112.941 37.9372L110.521 37.354C107.091 36.5255 105.498 34.9214 105.498 32.3184C105.498 29.0956 108.307 26.8818 112.295 26.8818C116.242 26.8818 118.948 29.0956 119.039 32.3184H116.217C116.048 30.4543 114.507 29.3291 112.255 29.3291C110.004 29.3291 108.463 30.4676 108.463 32.1246C108.463 33.4451 109.447 34.2222 111.854 34.8171L113.912 35.3224C117.745 36.2288 119.337 37.7683 119.337 40.5005C119.337 43.9951 116.554 46.1839 112.126 46.1839C107.984 46.1839 105.187 44.0465 105.006 40.6679L107.868 40.6681Z" fill="white"/>
<path d="M125.37 29.0312V32.2541H127.96V34.4679H125.37V41.9757C125.37 43.142 125.889 43.6856 127.027 43.6856C127.335 43.6802 127.642 43.6586 127.947 43.6209V45.8214C127.435 45.917 126.915 45.9603 126.394 45.9506C123.637 45.9506 122.562 44.915 122.562 42.2738V34.4679H120.582V32.2541H122.562V29.0312H125.37Z" fill="white"/>
<path d="M129.46 39.0645C129.46 34.7795 131.984 32.0869 135.919 32.0869C139.868 32.0869 142.379 34.7795 142.379 39.0645C142.379 43.3612 139.881 46.042 135.919 46.042C131.959 46.042 129.46 43.3611 129.46 39.0645ZM139.531 39.0645C139.531 36.1251 138.184 34.3902 135.919 34.3902C133.654 34.3902 132.308 36.1383 132.308 39.0645C132.308 42.0156 133.654 43.7372 135.919 43.7372C138.184 43.7372 139.531 42.0156 139.531 39.0645Z" fill="white"/>
<path d="M144.684 32.2543H147.35V34.5722H147.415C147.595 33.8483 148.019 33.2085 148.616 32.7604C149.213 32.3123 149.945 32.0833 150.691 32.1117C151.013 32.1106 151.334 32.1456 151.649 32.216V34.8308C151.242 34.7065 150.818 34.6495 150.393 34.6619C149.986 34.6454 149.582 34.717 149.206 34.8718C148.83 35.0265 148.492 35.2608 148.215 35.5584C147.939 35.8561 147.73 36.2101 147.603 36.5962C147.476 36.9823 147.434 37.3913 147.48 37.7951V45.8729H144.684L144.684 32.2543Z" fill="white"/>
<path d="M164.537 41.8721C164.161 44.3444 161.753 46.041 158.673 46.041C154.711 46.041 152.252 43.3866 152.252 39.1281C152.252 34.8564 154.724 32.0859 158.555 32.0859C162.323 32.0859 164.693 34.6742 164.693 38.8035V39.7612H155.074V39.9302C155.03 40.4314 155.092 40.9363 155.258 41.4114C155.424 41.8865 155.689 42.3208 156.035 42.6857C156.382 43.0505 156.802 43.3375 157.268 43.5275C157.734 43.7175 158.235 43.8061 158.738 43.7876C159.398 43.8495 160.061 43.6965 160.628 43.3514C161.194 43.0063 161.635 42.4875 161.883 41.8721L164.537 41.8721ZM155.087 37.8075H161.896C161.921 37.3569 161.853 36.9059 161.695 36.4829C161.538 36.0599 161.295 35.674 160.981 35.3494C160.667 35.0249 160.29 34.7687 159.872 34.5969C159.455 34.4251 159.007 34.3414 158.555 34.3511C158.1 34.3484 157.649 34.4358 157.228 34.6084C156.807 34.781 156.424 35.0353 156.101 35.3567C155.779 35.678 155.523 36.06 155.349 36.4807C155.175 36.9014 155.086 37.3523 155.087 37.8075Z" fill="white"/>
<path d="M56.8986 13.1332C57.4847 13.0912 58.0727 13.1797 58.6204 13.3925C59.1681 13.6052 59.6618 13.9369 60.0658 14.3635C60.4698 14.7901 60.7741 15.3011 60.9567 15.8596C61.1393 16.418 61.1957 17.0101 61.1218 17.593C61.1218 20.4604 59.5721 22.1086 56.8986 22.1086H53.6566V13.1332H56.8986ZM55.0506 20.8393H56.7429C57.1617 20.8643 57.5808 20.7957 57.9696 20.6383C58.3585 20.4809 58.7075 20.2388 58.991 19.9296C59.2745 19.6204 59.4855 19.2519 59.6087 18.8508C59.7318 18.4498 59.764 18.0263 59.7028 17.6113C59.7595 17.1979 59.7241 16.777 59.5991 16.3789C59.4741 15.9808 59.2625 15.6153 58.9796 15.3085C58.6968 15.0018 58.3495 14.7614 57.9628 14.6046C57.5761 14.4478 57.1595 14.3785 56.7429 14.4016H55.0506V20.8393Z" fill="white"/>
<path d="M62.6966 18.7195C62.654 18.2744 62.7049 17.8253 62.8461 17.401C62.9872 16.9767 63.2155 16.5866 63.5162 16.2557C63.817 15.9248 64.1836 15.6604 64.5925 15.4795C65.0014 15.2985 65.4437 15.2051 65.8908 15.2051C66.338 15.2051 66.7802 15.2985 67.1891 15.4795C67.598 15.6604 67.9646 15.9248 68.2654 16.2557C68.5661 16.5866 68.7944 16.9767 68.9356 17.401C69.0767 17.8253 69.1276 18.2744 69.0851 18.7195C69.1284 19.1651 69.0781 19.6148 68.9374 20.0398C68.7966 20.4647 68.5684 20.8556 68.2676 21.1871C67.9668 21.5187 67.5999 21.7836 67.1906 21.9649C66.7812 22.1462 66.3385 22.2399 65.8908 22.2399C65.4431 22.2399 65.0004 22.1462 64.5911 21.9649C64.1817 21.7836 63.8149 21.5187 63.514 21.1871C63.2132 20.8556 62.9851 20.4647 62.8443 20.0398C62.7035 19.6148 62.6532 19.1651 62.6966 18.7195ZM67.7101 18.7195C67.7101 17.2513 67.0505 16.3927 65.893 16.3927C64.7311 16.3927 64.0774 17.2513 64.0774 18.7195C64.0774 20.1995 64.7311 21.0515 65.893 21.0515C67.0506 21.0514 67.7101 20.1936 67.7101 18.7195Z" fill="white"/>
<path d="M77.5771 22.1093H76.1904L74.7905 17.1207H74.6847L73.2907 22.1093H71.9172L70.0502 15.3359H71.406L72.6194 20.5044H72.7193L74.1118 15.3359H75.3942L76.7868 20.5044H76.8926L78.1 15.3359H79.4368L77.5771 22.1093Z" fill="white"/>
<path d="M81.0071 15.3357H82.2939V16.4117H82.3938C82.5632 16.0252 82.849 15.7012 83.2114 15.4849C83.5737 15.2686 83.9945 15.1707 84.4151 15.2049C84.7446 15.1801 85.0756 15.2298 85.3833 15.3503C85.6911 15.4708 85.9678 15.659 86.1929 15.9009C86.4181 16.1429 86.5859 16.4324 86.684 16.748C86.7821 17.0636 86.8079 17.3972 86.7595 17.7242V22.1089H85.4228V18.0598C85.4228 16.9714 84.9498 16.43 83.9612 16.43C83.7374 16.4196 83.514 16.4577 83.3064 16.5417C83.0987 16.6257 82.9116 16.7535 82.758 16.9166C82.6044 17.0796 82.4879 17.2739 82.4164 17.4862C82.3449 17.6985 82.3201 17.9238 82.3438 18.1465V22.109H81.0071L81.0071 15.3357Z" fill="white"/>
<path d="M88.8895 12.6914H90.2263V22.1089H88.8895V12.6914Z" fill="white"/>
<path d="M92.0845 18.7196C92.0419 18.2745 92.0929 17.8253 92.2341 17.401C92.3753 16.9767 92.6036 16.5866 92.9043 16.2557C93.2051 15.9248 93.5718 15.6604 93.9807 15.4795C94.3897 15.2985 94.8319 15.2051 95.2791 15.2051C95.7263 15.2051 96.1685 15.2985 96.5775 15.4795C96.9864 15.6604 97.353 15.9248 97.6538 16.2557C97.9546 16.5866 98.1829 16.9767 98.3241 17.401C98.4653 17.8253 98.5162 18.2745 98.4737 18.7196C98.517 19.1652 98.4667 19.6149 98.3258 20.0399C98.185 20.4649 97.9568 20.8557 97.656 21.1872C97.3551 21.5188 96.9882 21.7837 96.5789 21.965C96.1695 22.1463 95.7268 22.24 95.2791 22.24C94.8314 22.24 94.3886 22.1463 93.9793 21.965C93.5699 21.7837 93.203 21.5188 92.9022 21.1872C92.6013 20.8557 92.3731 20.4649 92.2323 20.0399C92.0915 19.6149 92.0411 19.1652 92.0845 18.7196ZM97.098 18.7196C97.098 17.2514 96.4384 16.3928 95.2809 16.3928C94.119 16.3928 93.4653 17.2514 93.4653 18.7196C93.4653 20.1996 94.119 21.0516 95.2809 21.0516C96.4385 21.0516 97.098 20.1937 97.098 18.7196Z" fill="white"/>
<path d="M99.881 20.1936C99.881 18.9744 100.789 18.2715 102.4 18.1716L104.235 18.0659V17.4812C104.235 16.7658 103.762 16.3619 102.848 16.3619C102.102 16.3619 101.585 16.6358 101.437 17.1147H100.142C100.279 15.9513 101.373 15.2051 102.91 15.2051C104.608 15.2051 105.566 16.0504 105.566 17.4812V22.1092H104.279V21.1573H104.173C103.959 21.4987 103.657 21.7771 103.3 21.9639C102.942 22.1508 102.542 22.2394 102.139 22.2208C101.854 22.2503 101.567 22.22 101.295 22.1317C101.023 22.0434 100.773 21.8991 100.56 21.7081C100.347 21.5171 100.177 21.2837 100.06 21.0228C99.9431 20.762 99.8821 20.4795 99.881 20.1936ZM104.235 19.6149V19.0486L102.581 19.1544C101.648 19.2168 101.225 19.5341 101.225 20.1312C101.225 20.7408 101.754 21.0956 102.481 21.0956C102.694 21.1171 102.909 21.0956 103.114 21.0323C103.319 20.969 103.508 20.8652 103.672 20.727C103.836 20.5889 103.97 20.4192 104.066 20.2282C104.163 20.0371 104.22 19.8285 104.235 19.6149Z" fill="white"/>
<path d="M107.323 18.7193C107.323 16.579 108.423 15.2232 110.134 15.2232C110.558 15.2037 110.978 15.3051 111.346 15.5155C111.713 15.7259 112.014 16.0367 112.211 16.4115H112.311V12.6914H113.648V22.1089H112.367V21.0387H112.261C112.048 21.411 111.738 21.7179 111.363 21.9262C110.988 22.1345 110.563 22.2363 110.134 22.2205C108.411 22.2206 107.323 20.8647 107.323 18.7193ZM108.704 18.7193C108.704 20.1559 109.381 21.0204 110.513 21.0204C111.64 21.0204 112.336 20.1435 112.336 18.7252C112.336 17.3135 111.633 16.424 110.513 16.424C109.388 16.424 108.704 17.2944 108.704 18.7193Z" fill="white"/>
<path d="M119.179 18.7195C119.136 18.2744 119.187 17.8253 119.328 17.401C119.469 16.9767 119.698 16.5866 119.998 16.2557C120.299 15.9248 120.666 15.6604 121.075 15.4795C121.484 15.2985 121.926 15.2051 122.373 15.2051C122.82 15.2051 123.262 15.2985 123.671 15.4795C124.08 15.6604 124.447 15.9248 124.747 16.2557C125.048 16.5866 125.277 16.9767 125.418 17.401C125.559 17.8253 125.61 18.2744 125.567 18.7195C125.611 19.1651 125.56 19.6148 125.419 20.0398C125.279 20.4647 125.051 20.8556 124.75 21.1871C124.449 21.5187 124.082 21.7836 123.673 21.9649C123.263 22.1462 122.821 22.2399 122.373 22.2399C121.925 22.2399 121.482 22.1462 121.073 21.9649C120.664 21.7836 120.297 21.5187 119.996 21.1871C119.695 20.8556 119.467 20.4647 119.326 20.0398C119.186 19.6148 119.135 19.1651 119.179 18.7195ZM124.192 18.7195C124.192 17.2513 123.533 16.3927 122.375 16.3927C121.213 16.3927 120.56 17.2513 120.56 18.7195C120.56 20.1995 121.213 21.0515 122.375 21.0515C123.533 21.0514 124.192 20.1936 124.192 18.7195Z" fill="white"/>
<path d="M127.361 15.3357H128.648V16.4117H128.747C128.917 16.0252 129.203 15.7012 129.565 15.4849C129.927 15.2686 130.348 15.1707 130.769 15.2049C131.098 15.1801 131.429 15.2298 131.737 15.3503C132.045 15.4708 132.321 15.659 132.547 15.9009C132.772 16.1429 132.94 16.4324 133.038 16.748C133.136 17.0636 133.162 17.3972 133.113 17.7242V22.1089H131.776V18.0598C131.776 16.9714 131.303 16.43 130.315 16.43C130.091 16.4196 129.868 16.4577 129.66 16.5417C129.452 16.6257 129.265 16.7535 129.112 16.9166C128.958 17.0796 128.841 17.2739 128.77 17.4862C128.699 17.6985 128.674 17.9238 128.697 18.1465V22.109H127.361V15.3357Z" fill="white"/>
<path d="M140.667 13.6494V15.3666H142.134V16.4926H140.667V19.9755C140.667 20.685 140.959 20.9957 141.624 20.9957C141.795 20.9951 141.965 20.9848 142.134 20.9648V22.0783C141.894 22.1212 141.651 22.1441 141.407 22.1466C139.92 22.1466 139.328 21.6236 139.328 20.3177V16.4925H138.253V15.3666H139.328V13.6494H140.667Z" fill="white"/>
<path d="M143.96 12.6914H145.285V16.424H145.391C145.568 16.034 145.862 15.7082 146.232 15.491C146.601 15.2739 147.029 15.176 147.456 15.2107C147.784 15.1928 148.112 15.2476 148.416 15.371C148.72 15.4944 148.993 15.6834 149.216 15.9246C149.439 16.1658 149.606 16.4532 149.705 16.7663C149.804 17.0793 149.832 17.4104 149.789 17.7358V22.1089H148.451V18.0656C148.451 16.9837 147.947 16.4358 147.002 16.4358C146.772 16.4169 146.541 16.4485 146.325 16.5283C146.109 16.6081 145.913 16.7342 145.75 16.8978C145.588 17.0613 145.463 17.2584 145.385 17.4752C145.306 17.692 145.276 17.9234 145.297 18.153V22.1089H143.96L143.96 12.6914Z" fill="white"/>
<path d="M157.583 20.2804C157.401 20.8995 157.008 21.4349 156.471 21.7932C155.935 22.1514 155.289 22.3096 154.648 22.24C154.202 22.2518 153.758 22.1663 153.348 21.9895C152.939 21.8127 152.572 21.5489 152.274 21.2162C151.977 20.8836 151.755 20.4902 151.624 20.0632C151.494 19.6363 151.458 19.1861 151.519 18.7439C151.46 18.3003 151.496 17.8492 151.626 17.421C151.757 16.9928 151.977 16.5975 152.273 16.262C152.569 15.9264 152.934 15.6584 153.343 15.4761C153.752 15.2938 154.195 15.2014 154.642 15.2052C156.527 15.2052 157.664 16.4928 157.664 18.6198V19.0862H152.881V19.1611C152.86 19.4097 152.891 19.6599 152.973 19.8956C153.054 20.1314 153.184 20.3476 153.354 20.5303C153.523 20.713 153.73 20.8582 153.959 20.9565C154.188 21.0549 154.435 21.1043 154.685 21.1015C155.005 21.1399 155.328 21.0823 155.615 20.9361C155.902 20.7899 156.139 20.5616 156.296 20.2804L157.583 20.2804ZM152.881 18.0976H156.302C156.319 17.8702 156.288 17.6419 156.211 17.4272C156.135 17.2125 156.014 17.0163 155.857 16.851C155.7 16.6858 155.51 16.5552 155.3 16.4677C155.089 16.3802 154.863 16.3377 154.635 16.3429C154.404 16.34 154.174 16.3834 153.96 16.4706C153.746 16.5577 153.551 16.6869 153.388 16.8504C153.224 17.0139 153.095 17.2085 153.008 17.4227C152.921 17.6369 152.878 17.8664 152.881 18.0976Z" fill="white"/>
</g>
<defs>
<clipPath id="clip0_1230_4986">
<rect width="180" height="60.1684" fill="white"/>
</clipPath>
</defs>
</svg>
