<svg width="680" height="680" viewBox="0 0 680 680" fill="none" xmlns="http://www.w3.org/2000/svg">
<path d="M104.815 606.029C105.998 601.351 102.911 596.673 99.4569 593.3C96.0025 589.927 91.8681 586.921 90.0593 582.42C87.1217 575.171 90.9569 565.733 85.9793 559.708C83.0553 556.158 77.8193 554.989 75.2353 551.194C74.033 549.093 73.2307 546.788 72.8689 544.394C70.052 532.349 64.0489 521.282 55.4881 512.353C54.9796 523.109 57.3704 533.804 62.4105 543.32C64.4369 547.128 66.9121 550.827 67.6057 555.07C68.7209 561.979 64.8857 569.105 66.6401 575.878C68.6257 583.63 77.3705 588.771 77.8329 596.754C78.2137 603.554 72.3929 609.457 72.8417 616.202C73.2028 619.086 74.2472 621.841 75.8881 624.24C81.1649 632.889 88.8625 638.819 100.477 638.561L114.716 638.982L104.815 606.029Z" fill="#F5F5F5"/>
<path d="M117.599 639.282C118.901 639.477 120.227 639.44 121.516 639.174C123.092 638.932 124.641 638.535 126.14 637.99C128.201 637.256 130.127 636.185 131.838 634.822C132.857 633.978 133.655 632.9 134.164 631.68C134.588 630.301 134.803 628.866 134.803 627.423C134.822 625.882 134.927 624.343 135.116 622.813C135.386 621.189 135.968 619.632 136.83 618.23C138.489 615.265 141.263 612.463 142.134 608.451C143.004 604.439 142.365 600.291 141.685 595.98C141.005 591.669 140.325 587.072 141.943 582.611C143.562 578.15 146.54 574.111 148.063 569.079C149.586 564.047 148.838 558.566 149.138 553.181C149.223 550.45 149.837 547.762 150.946 545.266C152.089 542.736 153.666 540.356 154.904 537.704C157.393 532.264 157.801 526.239 158.467 520.282C158.785 517.281 159.106 514.248 159.433 511.184C159.63 508.102 160.145 505.048 160.97 502.072C161.908 499.066 163.026 496.119 164.315 493.246C164.987 491.757 165.533 490.215 165.947 488.635C166.178 487.012 166.323 485.378 166.382 483.739C166.516 480.446 166.37 477.148 165.947 473.879C165.539 470.602 164.927 467.351 164.587 464.06C164.587 463.856 164.587 463.666 164.587 463.489L164.506 462.836L163.921 463.135C160.912 464.687 158.301 466.912 156.291 469.636C154.342 472.306 152.776 475.235 151.64 478.34C149.301 484.474 148.471 490.879 147.315 497.013C146.159 503.146 144.595 509.158 141.562 514.258C140.012 516.801 138.149 519.126 136.503 521.602C134.751 524.029 133.562 526.817 133.022 529.762C132.206 535.786 135.565 541.063 134.898 546.394C134.583 549.014 133.711 551.537 132.342 553.793C131.063 556.078 129.622 558.199 128.126 560.321C126.666 562.399 125.401 564.607 124.345 566.917C123.354 569.176 122.774 571.594 122.631 574.057C122.318 578.858 123.026 583.414 122.699 587.657C122.325 591.753 121.151 595.735 119.245 599.38C117.545 602.889 115.654 606.058 114.063 609.145C113.274 610.621 112.561 612.137 111.928 613.687C111.368 615.147 110.958 616.66 110.704 618.202C110.313 620.908 110.313 623.656 110.704 626.362C111.087 630.117 112.499 633.694 114.784 636.698C115.128 637.148 115.515 637.562 115.94 637.936C116.222 638.233 116.537 638.498 116.878 638.725C117.409 639.119 117.694 639.296 117.694 639.296C116.696 638.485 115.785 637.574 114.974 636.576C112.766 633.569 111.413 630.021 111.058 626.308C110.719 623.645 110.764 620.947 111.194 618.298C111.443 616.788 111.858 615.31 112.431 613.891C113.064 612.359 113.777 610.861 114.566 609.403C116.171 606.357 118.089 603.188 119.83 599.652C121.793 595.95 123.004 591.897 123.393 587.725C123.746 583.332 123.053 578.776 123.393 574.125C123.48 571.718 123.996 569.346 124.916 567.121C125.969 564.861 127.22 562.699 128.656 560.661C130.084 558.553 131.607 556.431 132.926 554.092C134.373 551.75 135.3 549.125 135.646 546.394C136.299 540.71 132.926 535.406 133.797 529.802C134.327 526.99 135.48 524.332 137.17 522.023C138.774 519.589 140.665 517.263 142.256 514.652C145.452 509.402 146.989 503.269 148.131 497.122C149.274 490.974 150.13 484.61 152.429 478.612C153.536 475.588 155.065 472.735 156.971 470.139C158.887 467.519 161.388 465.381 164.274 463.897L163.622 463.53C163.622 463.72 163.622 463.91 163.622 464.114C163.989 467.433 164.601 470.697 164.982 473.934C165.404 477.152 165.55 480.401 165.417 483.644C165.335 485.222 165.24 486.894 165.009 488.39C164.603 489.913 164.075 491.4 163.431 492.838C162.131 495.743 161 498.722 160.045 501.759C159.213 504.785 158.693 507.889 158.494 511.021C158.182 514.094 157.855 517.127 157.542 520.133C156.89 526.117 156.482 532.101 154.074 537.296C152.891 539.88 151.354 542.274 150.144 544.871C149.004 547.446 148.371 550.217 148.281 553.031C147.995 558.471 148.743 563.911 147.288 568.766C145.833 573.622 142.759 577.674 141.209 582.271C139.658 586.868 140.284 591.723 140.991 595.98C141.698 600.237 142.419 604.426 141.522 608.22C140.624 612.014 138.026 614.83 136.326 617.862C135.443 619.36 134.869 621.021 134.64 622.745C134.454 624.293 134.359 625.85 134.354 627.41C134.362 628.79 134.169 630.164 133.783 631.49C133.31 632.659 132.553 633.692 131.58 634.495C129.916 635.851 128.042 636.926 126.031 637.678C124.555 638.238 123.03 638.662 121.475 638.942C120.519 639.117 119.55 639.213 118.578 639.228L117.599 639.282Z" fill="#E0E0E0"/>
<path d="M161.622 471.349C161.552 471.48 161.506 471.623 161.486 471.77C161.405 472.11 161.31 472.532 161.174 473.062C160.902 474.177 160.575 475.877 160.058 477.985C159.542 480.093 158.236 482.501 157.148 485.438C156.06 488.376 154.863 491.749 153.816 495.557C152.769 499.365 151.817 503.581 150.838 508.096C149.993 512.921 148.487 517.608 146.363 522.022C145.207 524.348 143.902 526.701 142.882 529.257C141.873 531.883 141.197 534.624 140.869 537.417C140.186 543.21 139.196 548.961 137.904 554.649L130.043 587.588C127.568 597.679 125.324 606.777 123.447 614.448C121.57 622.118 120.129 628.32 119.082 632.604C118.592 634.698 118.211 636.344 117.939 637.541C117.83 638.071 117.735 638.493 117.667 638.901C117.652 639.05 117.652 639.2 117.667 639.349C117.736 639.217 117.787 639.075 117.817 638.928L118.184 637.649C118.497 636.466 118.946 634.834 119.544 632.753C120.659 628.415 122.264 622.268 124.195 614.693C126.126 607.117 128.438 597.965 130.995 587.887C133.552 577.809 136 566.562 138.802 554.88C140.094 549.17 141.083 543.395 141.766 537.581C142.065 534.849 142.71 532.167 143.684 529.597C144.677 527.095 145.955 524.756 147.111 522.417C149.255 517.935 150.756 513.173 151.572 508.273C152.524 503.744 153.422 499.528 154.442 495.747C155.462 491.966 156.536 488.566 157.624 485.642C158.712 482.718 159.895 480.284 160.344 478.094C160.793 475.905 161.092 474.245 161.31 473.103C161.391 472.586 161.459 472.151 161.527 471.811C161.578 471.662 161.61 471.506 161.622 471.349Z" fill="#E0E0E0"/>
<path d="M120.115 639.308C129.377 633.732 131.947 616.936 128.017 606.872C124.086 596.808 117.246 587.601 116.13 576.844C115.274 568.575 117.939 560.075 115.967 551.996C113.247 541.116 102.598 532.698 102.666 521.478C102.666 515.181 106.243 509.238 105.917 502.955C105.522 495.244 99.5657 489.151 95.8665 482.378C90.1953 472.015 89.7601 459.68 87.7745 448.065C85.7889 436.451 81.2737 423.939 70.8969 418.268C69.4281 428.182 66.8169 434.982 67.7553 448.392C68.0817 453.206 73.7257 462.4 74.5553 472.953C75.0449 479.25 75.3985 485.574 75.8201 491.884C76.2417 498.195 76.6497 504.288 78.8801 510C80.5937 514.392 83.3273 518.377 84.6057 522.92C87.0129 531.46 83.9665 540.749 85.9657 549.412C87.6249 556.743 92.7657 563.012 93.8265 570.479C95.3497 580.937 88.6313 591.844 92.1537 601.759C93.9081 606.696 98.0017 610.653 99.1849 615.753C100.11 619.724 99.1849 623.913 99.9873 627.912C101.347 634.331 113.587 639.24 120.156 638.792" fill="#E0E0E0"/>
<path d="M73.5216 428.087C73.5035 428.272 73.5035 428.459 73.5216 428.645C73.5216 429.066 73.644 429.597 73.7392 430.277C73.9568 431.705 74.2152 433.799 74.7048 436.505C75.1944 439.212 76.6632 442.299 77.8192 446.025C78.9752 449.752 80.2264 453.981 81.3008 458.741C82.3752 463.501 83.3 468.778 84.2656 474.463C85.2312 480.148 86.2784 486.322 89.1344 492.225C90.4944 495.189 91.936 498.154 93.0512 501.309C94.1531 504.56 94.843 507.937 95.1048 511.36C95.6566 518.604 96.5964 525.813 97.92 532.957C100.844 547.617 103.646 561.517 106.175 574.287C108.705 587.057 111.302 598.4 113.329 607.92C115.355 617.44 117.042 625.178 118.198 630.591L119.558 636.752C119.721 637.405 119.843 637.935 119.938 638.343C119.973 638.525 120.028 638.703 120.102 638.873C120.117 638.688 120.117 638.501 120.102 638.316C120.02 637.908 119.925 637.377 119.802 636.711C119.517 635.229 119.122 633.161 118.606 630.523C117.518 625.083 115.886 617.345 114.022 607.784C112.159 598.223 109.698 586.772 107.1 574.097C104.502 561.421 101.823 547.441 98.94 532.793C97.6089 525.659 96.6556 518.459 96.084 511.224C95.8214 507.735 95.1176 504.294 93.9896 500.983C92.8472 497.746 91.3512 494.768 90.0184 491.83C87.1896 486.023 86.1696 479.944 85.136 474.286C84.1024 468.629 83.1776 463.325 82.0488 458.551C81.0527 454.254 79.8408 450.01 78.4176 445.835C77.2208 442.122 75.6976 439.035 75.1808 436.424C74.664 433.813 74.324 431.637 74.0384 430.222C73.916 429.556 73.8072 429.025 73.7392 428.617C73.6817 428.435 73.6089 428.257 73.5216 428.087Z" fill="#EBEBEB"/>
<path d="M286.022 75.1129C293.964 65.8513 314.582 71.6721 328.753 79.1929C328.753 79.1929 338.49 83.7897 342.108 86.1697H342.23L375.306 82.0897C377.994 81.7441 380.724 82.2181 383.139 83.4497L385.859 84.8097C386.166 84.9677 386.421 85.2094 386.596 85.5068C386.77 85.8042 386.857 86.145 386.846 86.4897C386.834 86.8343 386.725 87.1687 386.531 87.4539C386.338 87.7391 386.067 87.9634 385.75 88.1009L361.393 98.5049V98.8041L385.438 114.607L385.805 114.838C390.339 117.746 395.803 118.834 401.105 117.885L413.984 115.573C414.635 115.449 415.308 115.505 415.929 115.736C416.45 115.948 416.907 116.291 417.256 116.732C417.606 117.172 417.835 117.696 417.923 118.251C418.01 118.807 417.953 119.375 417.756 119.902C417.559 120.429 417.23 120.896 416.799 121.258L401.839 133.715C400.697 134.674 399.305 135.288 397.826 135.486C396.347 135.683 394.843 135.456 393.489 134.83L386.498 131.621L351.138 114.798L355.218 134.912C355.246 135.106 355.231 135.303 355.175 135.491C355.119 135.679 355.023 135.852 354.894 135.999C354.765 136.147 354.606 136.264 354.427 136.344C354.248 136.424 354.054 136.464 353.858 136.462H352.199C351.086 136.415 350.002 136.086 349.051 135.505C348.099 134.925 347.311 134.113 346.759 133.144L332.52 105.944L290.795 86.1017C285.233 83.5449 283.247 78.7713 286.022 75.1129Z" fill="#E0E0E0"/>
<path d="M54.4 164.165L159.27 161.84C159.27 161.84 149.6 145.125 122.672 148.24C96.9408 151.164 95.3904 140.542 82.2392 139.536C69.088 138.529 58.3984 148.77 54.4 164.165Z" fill="#F5F5F5"/>
<path d="M544.789 220.891H643.593C643.593 220.891 634.862 204.979 609.43 207.291C585.126 209.494 583.902 199.458 571.54 198.234C559.178 197.01 548.896 206.475 544.789 220.891Z" fill="#F5F5F5"/>
<path d="M114.118 112.119H189.489C189.489 112.119 182.825 99.9873 163.418 101.755C144.894 103.442 143.956 95.7849 134.531 94.8329C125.106 93.8809 117.259 101.116 114.118 112.119Z" fill="#F5F5F5"/>
<path d="M544.884 270.749H594.184C594.184 270.749 589.832 262.806 577.143 263.949C565.012 265.05 564.4 260.045 558.239 259.433C552.078 258.821 546.938 263.554 544.884 270.749Z" fill="#F5F5F5"/>
<path d="M520.227 134.259H569.541C569.541 134.259 565.175 126.317 552.486 127.459C540.355 128.561 539.743 123.556 533.582 122.944C527.422 122.332 522.24 127.065 520.227 134.259Z" fill="#FAFAFA"/>
<path d="M551.276 399.568C551.178 398.617 550.73 397.736 550.018 397.098C549.307 396.459 548.383 396.108 547.427 396.113H518.391C517.825 396.115 517.266 396.241 516.754 396.484C516.242 396.727 515.791 397.08 515.432 397.518C515.073 397.957 514.816 398.469 514.678 399.018C514.541 399.568 514.527 400.141 514.638 400.697C514.808 401.584 515.289 402.382 515.994 402.948C516.7 403.513 517.583 403.81 518.486 403.784H547.441C547.977 403.782 548.507 403.669 548.997 403.452C549.487 403.234 549.926 402.917 550.287 402.52C550.648 402.124 550.922 401.656 551.092 401.148C551.262 400.64 551.325 400.102 551.276 399.568Z" fill="#263238"/>
<path d="M614.611 629.871C614.345 631.684 614.623 633.535 615.409 635.19C616.195 636.845 617.454 638.229 619.027 639.168C620.601 640.107 622.417 640.559 624.247 640.465C626.077 640.372 627.838 639.738 629.307 638.643C630.776 637.549 631.888 636.043 632.502 634.317C633.115 632.591 633.203 630.721 632.754 628.945C632.304 627.169 631.338 625.566 629.978 624.338C628.617 623.111 626.923 622.315 625.11 622.051C622.681 621.697 620.211 622.322 618.242 623.788C616.274 625.254 614.968 627.442 614.611 629.871Z" fill="#263238"/>
<path d="M621.846 631.271L616.202 619.602L619.167 617.712L624.634 629.898L621.846 631.271Z" fill="#455A64"/>
<path d="M569.541 487.615L534.466 396.101L527.802 399.446L561.789 490.131L569.541 487.615Z" fill="#263238"/>
<path d="M650.527 608.493L598.707 629.083C597.782 629.451 596.749 629.436 595.835 629.042C594.921 628.648 594.201 627.906 593.833 626.981L542.293 497.269C540.346 492.368 540.425 486.895 542.513 482.052C544.602 477.21 548.528 473.396 553.429 471.449L575.269 462.771C580.169 460.824 585.643 460.903 590.485 462.991C595.327 465.08 599.141 469.006 601.089 473.907L652.629 603.619C652.996 604.544 652.981 605.578 652.587 606.492C652.193 607.406 651.452 608.126 650.527 608.493Z" fill="#EAECC6"/>
<path d="M593.776 627.572C593.776 627.572 593.694 627.3 593.504 626.784L592.647 624.485L589.274 615.659L576.722 583.277C571.377 569.609 565.039 553.357 557.994 535.283L546.91 506.954C545.958 504.506 544.979 502.031 544.014 499.528C542.99 497.081 542.615 494.411 542.926 491.776C543.26 489.091 544.313 486.546 545.973 484.41C547.632 482.273 549.838 480.623 552.356 479.635C554.875 478.646 557.614 478.355 560.284 478.793C562.954 479.23 565.456 480.38 567.528 482.12C569.538 483.847 571.078 486.056 572.002 488.54L574.913 495.979C578.775 505.798 582.502 515.264 586.038 524.294L604.928 572.22C610.368 585.82 614.679 596.85 617.726 604.507L621.234 613.279C621.642 614.244 621.942 615.006 622.173 615.55C622.404 616.094 622.513 616.312 622.513 616.312C622.513 616.312 622.431 616.04 622.241 615.509L621.384 613.211C620.609 611.171 619.466 608.206 618.011 604.398L605.458 572.016L586.731 524.022C583.209 514.992 579.496 505.512 575.647 495.693C574.695 493.232 573.716 490.756 572.737 488.254C571.786 485.62 570.169 483.278 568.045 481.454C565.863 479.619 563.226 478.406 560.412 477.944C557.599 477.483 554.712 477.789 552.058 478.83C549.404 479.872 547.08 481.611 545.332 483.863C543.583 486.115 542.475 488.797 542.123 491.627C541.794 494.4 542.188 497.211 543.266 499.787L546.176 507.28C550.038 517.086 553.765 526.565 557.301 535.582C564.4 553.588 570.806 569.84 576.178 583.44L588.975 615.74L592.498 624.499C592.892 625.478 593.205 626.226 593.436 626.77C593.533 627.044 593.646 627.312 593.776 627.572Z" fill="#263238"/>
<path d="M590.43 535.391C590.539 535.745 597.312 533.066 605.567 529.435C613.822 525.803 620.418 522.553 620.31 522.213C620.201 521.873 613.414 524.525 605.173 528.17C596.931 531.815 590.322 535.038 590.43 535.391Z" fill="#263238"/>
<path d="M544.598 396.1L538.546 384.132C537.868 382.795 536.735 381.743 535.35 381.167L525.83 377.196L500.181 342.407L497.76 369.05L514.08 385.9C514.08 385.9 524.321 407.47 532.685 406.368C532.477 404.424 531.905 402.537 530.998 400.806C528.278 396.1 531.175 396.1 531.556 396.127H538.56L544.598 396.1Z" fill="#FFBE9D"/>
<path d="M502.724 377.7C503.499 378.856 509.837 387.451 509.837 387.451L527.802 374.381L521.274 368.003L502.724 377.7Z" fill="#EAECC6"/>
<path d="M531.053 400.806C531.053 400.806 535.731 403.526 536.316 405.729V407.089L530.713 406.273L531.053 400.806Z" fill="#FFBE9D"/>
<path d="M537.322 403.363C536.493 402.714 535.846 401.861 535.446 400.888C535.265 400.396 535.274 399.856 535.47 399.371C535.666 398.885 536.035 398.491 536.506 398.263C537.472 397.936 538.465 398.63 539.226 399.324C540.182 400.18 541.09 401.088 541.946 402.044C542.352 402.392 542.669 402.83 542.872 403.324C543.075 403.818 543.159 404.354 543.116 404.886C542.99 405.299 542.74 405.664 542.399 405.929C542.058 406.194 541.643 406.348 541.212 406.368C540.778 406.378 540.346 406.298 539.944 406.134C539.542 405.971 539.177 405.726 538.873 405.416C538.267 404.806 537.782 404.086 537.445 403.295" fill="#FFBE9D"/>
<path d="M542.069 402.955C541.239 402.306 540.593 401.453 540.192 400.479C540.012 399.988 540.02 399.448 540.216 398.962C540.412 398.477 540.782 398.082 541.253 397.855C542.218 397.528 543.211 398.222 543.973 398.915C544.929 399.771 545.837 400.679 546.693 401.635C547.098 401.983 547.415 402.422 547.619 402.916C547.822 403.41 547.905 403.945 547.862 404.478C547.737 404.891 547.486 405.255 547.145 405.521C546.804 405.786 546.39 405.94 545.958 405.96C545.524 405.969 545.093 405.889 544.691 405.725C544.289 405.561 543.924 405.317 543.619 405.008C543.013 404.398 542.529 403.678 542.191 402.887" fill="#FFBE9D"/>
<path d="M527.802 382.527C527.802 382.364 529.013 382.418 530.414 383.629C531.065 384.424 531.609 385.302 532.032 386.24C532.665 387.378 532.984 388.664 532.957 389.966C532.762 391.247 532.258 392.46 531.488 393.502C530.967 394.34 530.591 395.26 530.373 396.222C530.175 397.114 530.111 398.031 530.182 398.942C529.947 398.517 529.799 398.049 529.747 397.565C529.696 397.081 529.742 396.592 529.883 396.127C530.047 395.096 530.402 394.104 530.93 393.203C531.622 392.23 532.086 391.115 532.29 389.939C532.306 388.757 532.03 387.589 531.488 386.539C531.13 385.635 530.674 384.773 530.128 383.969C529.66 383.506 529.129 383.112 528.55 382.799C528.306 382.694 528.057 382.604 527.802 382.527Z" fill="#EB996E"/>
<path d="M334.261 259.774L315.194 320.729L371.28 379.304L422.674 365.949L334.261 259.774Z" fill="#F5F5F5"/>
<path d="M334.247 259.76L334.682 260.263L335.974 261.787L340.979 267.743L359.625 289.979L422.96 365.731L423.314 366.153L422.783 366.289L393.815 373.823L371.389 379.644H371.185L371.049 379.495L314.99 320.96L314.881 320.838V320.688C320.783 302.015 325.625 286.77 328.984 276.162C330.643 270.912 331.949 266.819 332.846 264.017L333.853 260.862C334.084 260.168 334.193 259.815 334.193 259.815C333.54 261.95 326.835 283.751 315.411 320.851L315.343 320.579L371.47 379.059L371.13 378.964L393.557 373.13L422.525 365.595L422.348 366.167L359.584 290.442L341.006 268.002L336.002 261.923L334.642 260.345L334.247 259.76Z" fill="#263238"/>
<path d="M336.002 299.976C336.714 298.869 337.642 297.917 338.731 297.177C339.82 296.438 341.047 295.926 342.338 295.672C343.63 295.418 344.959 295.427 346.247 295.699C347.535 295.971 348.755 296.501 349.833 297.256C353.342 299.976 354.96 305.103 359.176 306.463C362.222 307.442 365.582 306.014 368.696 306.572C372.382 307.238 375.129 310.652 376.19 314.188C377.25 317.724 376.965 321.627 376.666 325.367L358.428 325.612L336.002 299.976Z" fill="#E0E0E0"/>
<path d="M302.274 265.336L420.458 387.124L372.3 382.242L304.939 311.128L302.274 265.336Z" fill="#F5F5F5"/>
<path d="M302.287 265.336C302.396 267.118 303.375 282.785 305.17 311.114V310.964C322.402 329.107 345.97 353.9 372.613 382.011L372.395 381.902L409.346 385.628L420.553 386.771L420.267 387.369C354.552 319.369 304.953 268.043 302.355 265.336L420.77 386.88L421.45 387.573L420.485 387.478L409.265 386.336L372.327 382.582H372.205L372.11 382.5C345.508 354.335 322.007 329.46 304.83 311.304V311.223C303.198 282.799 302.369 267.118 302.287 265.336Z" fill="#263238"/>
<path d="M348.527 313.739C344.882 317.941 345.413 324.619 348.527 329.256C351.642 333.894 356.782 336.696 361.978 338.695C366.18 340.313 371.362 341.333 374.843 338.477" fill="#E0E0E0"/>
<path d="M342.38 307.115C342.598 308.135 341.319 308.897 340.286 308.802C339.252 308.706 338.3 308.122 337.253 308.067C334.41 307.904 332.86 311.277 330.548 312.922C329.154 313.833 327.459 314.165 325.824 313.848C324.189 313.531 322.742 312.589 321.79 311.222C320.239 308.815 320.28 305.252 317.832 303.77C316.39 303.065 314.74 302.915 313.194 303.348C311.664 303.774 310.074 303.939 308.489 303.838C307.699 303.765 306.958 303.422 306.391 302.867C305.824 302.313 305.465 301.579 305.374 300.791L304.518 299.431L302.505 265.812L342.38 307.115Z" fill="#E0E0E0"/>
<path d="M399.976 384.663C400.582 384.816 401.214 384.845 401.831 384.745C402.449 384.646 403.04 384.421 403.567 384.085C404.095 383.748 404.548 383.307 404.898 382.789C405.249 382.271 405.49 381.687 405.606 381.072C405.758 379.723 405.387 378.366 404.57 377.282C403.753 376.197 402.552 375.466 401.214 375.238C398.806 374.925 396.318 376.326 394.006 375.605C391.367 374.775 390.279 371.715 389.613 369.036C388.946 366.357 388.008 363.297 385.451 362.236C381.222 360.523 376.761 365.949 372.341 364.752C369.063 363.868 367.798 359.924 365.228 357.707C364.188 356.826 362.939 356.226 361.601 355.964C360.263 355.702 358.88 355.787 357.585 356.211C356.408 356.499 355.341 357.123 354.512 358.007C353.684 358.89 353.131 359.996 352.92 361.189L372.436 381.766L399.976 384.663Z" fill="#E0E0E0"/>
<path d="M367.662 590.484L362.807 618.473C362.807 618.473 332.724 622.934 331.323 627.993L385.261 639.363L394.618 596.06L367.662 590.484Z" fill="#EAECC6"/>
<g opacity="0.6">
<path d="M379.984 619.657C380.469 619.923 380.839 620.359 381.022 620.882C381.205 621.404 381.189 621.975 380.977 622.486C380.728 622.981 380.298 623.361 379.777 623.548C379.255 623.735 378.682 623.716 378.175 623.493C377.661 623.209 377.27 622.745 377.079 622.189C376.888 621.634 376.91 621.027 377.142 620.487C377.455 619.997 377.947 619.648 378.512 619.514C379.078 619.379 379.674 619.47 380.174 619.766" fill="white"/>
</g>
<path opacity="0.6" d="M385.261 639.391L386.24 635.121L334.07 625.791C334.07 625.791 331.459 626.335 331.35 628.076L385.261 639.391Z" fill="white"/>
<path d="M361.991 618.012C361.991 618.284 363.242 618.678 364.358 619.793C365.473 620.909 365.935 622.173 366.194 622.119C366.452 622.065 366.384 620.46 365.01 619.127C363.637 617.794 361.991 617.767 361.991 618.012Z" fill="#263238"/>
<path d="M355.844 619.168C355.735 619.413 356.782 620.093 357.435 621.399C358.088 622.704 358.102 623.928 358.374 623.983C358.646 624.037 359.122 622.623 358.265 620.963C357.408 619.304 355.898 618.91 355.844 619.168Z" fill="#263238"/>
<path d="M351.206 625.26C351.438 625.369 352.077 624.131 351.71 622.54C351.342 620.949 350.227 620.119 350.064 620.323C349.901 620.527 350.499 621.452 350.798 622.758C351.098 624.063 350.948 625.179 351.206 625.26Z" fill="#263238"/>
<path d="M363.814 611.756C363.814 612.028 365.174 611.919 366.629 612.327C368.084 612.735 369.145 613.456 369.349 613.265C369.553 613.075 368.614 611.905 366.887 611.429C365.16 610.953 363.718 611.524 363.814 611.756Z" fill="#263238"/>
<path opacity="0.3" d="M366.71 596.034L365.84 601.012L392.401 606.357L393.38 601.909L366.71 596.034Z" fill="black"/>
<path d="M364.888 606.125C365.729 606.55 366.668 606.743 367.608 606.683C368.622 606.723 369.637 606.632 370.627 606.411C371.208 606.282 371.78 606.119 372.341 605.921C372.68 605.818 373.002 605.662 373.293 605.459C373.501 605.309 373.655 605.095 373.731 604.85C373.807 604.604 373.801 604.341 373.714 604.099C373.618 603.889 373.475 603.703 373.296 603.557C373.117 603.411 372.906 603.308 372.681 603.256C372.342 603.182 371.993 603.159 371.647 603.188C370.01 603.235 368.413 603.703 367.01 604.548C365.514 605.445 364.874 606.329 364.956 606.411C365.038 606.493 365.84 605.826 367.309 605.133C368.675 604.502 370.156 604.159 371.661 604.126C372.259 604.126 372.749 604.194 372.844 604.48C372.939 604.765 372.844 604.629 372.722 604.779C372.504 604.919 372.272 605.033 372.028 605.119C371.502 605.314 370.966 605.482 370.423 605.622C369.497 605.865 368.55 606.02 367.594 606.085C366.692 606.037 365.788 606.05 364.888 606.125Z" fill="#263238"/>
<path d="M365.16 606.561C365.241 606.629 365.962 605.799 366.425 604.113C366.674 603.122 366.757 602.098 366.669 601.08C366.626 600.47 366.512 599.868 366.329 599.285C366.259 598.899 366.09 598.538 365.84 598.235C365.59 597.933 365.267 597.7 364.901 597.558C364.66 597.519 364.412 597.547 364.184 597.638C363.957 597.729 363.758 597.88 363.609 598.074C363.404 598.364 363.24 598.679 363.12 599.013C362.899 599.592 362.77 600.202 362.739 600.822C362.675 601.867 362.867 602.913 363.297 603.868C364.058 605.486 365.092 606.03 365.133 605.949C365.173 605.867 364.439 605.133 363.922 603.61C363.615 602.738 363.504 601.809 363.596 600.89C363.653 600.358 363.781 599.837 363.977 599.339C364.181 598.795 364.493 598.374 364.697 598.482C364.901 598.591 365.337 599.054 365.459 599.557C365.633 600.066 365.76 600.589 365.84 601.121C365.971 602.055 365.971 603.002 365.84 603.936C365.513 605.582 365.024 606.561 365.16 606.561Z" fill="#263238"/>
<path d="M544.898 592.185L533.242 576.953L532.63 576.164L512.72 590.947L531.121 611.157L530.454 631.625C520.2 634.263 518.663 639.39 518.663 639.39H539.961L559.314 602.126L544.898 592.185Z" fill="#EAECC6"/>
<path opacity="0.6" d="M559.354 602.099L540.002 639.363L518.704 639.39L521.098 636.181L538.424 635.215L556.281 599.991L559.354 602.099Z" fill="white"/>
<path d="M530.618 622.241C530.781 622.458 531.978 621.765 533.65 621.806C535.323 621.846 536.506 622.54 536.67 622.322C536.833 622.105 535.677 620.962 533.664 620.867C531.651 620.772 530.4 622.078 530.618 622.241Z" fill="#263238"/>
<path d="M530.958 617.169C531.175 617.318 532.114 616.067 533.814 615.727C535.514 615.387 536.874 616.176 537.01 615.958C537.146 615.741 536.846 615.496 536.248 615.169C535.44 614.771 534.523 614.651 533.64 614.828C532.757 615.005 531.957 615.469 531.366 616.149C530.944 616.693 530.849 617.114 530.958 617.169Z" fill="#263238"/>
<path d="M530.822 610.64C531.053 610.762 531.774 609.525 533.256 609.008C534.738 608.491 536.071 609.008 536.18 608.736C536.289 608.464 535.976 608.341 535.378 608.124C534.591 607.842 533.73 607.842 532.943 608.124C532.162 608.408 531.497 608.944 531.053 609.647C530.726 610.205 530.699 610.64 530.822 610.64Z" fill="#263238"/>
<path d="M525.11 605.608C525.368 605.689 525.966 604.479 527.286 603.622C528.605 602.765 529.924 602.643 530.006 602.371C530.087 602.099 528.414 601.759 526.823 602.847C525.232 603.935 524.851 605.581 525.11 605.608Z" fill="#263238"/>
<path d="M522.335 601.229C522.444 601.297 523.138 600.44 524.185 598.998L525.994 596.441C526.401 595.915 526.731 595.334 526.973 594.714C527.046 594.491 527.073 594.255 527.052 594.022C527.031 593.788 526.962 593.561 526.85 593.354C526.72 593.132 526.53 592.952 526.301 592.834C526.072 592.716 525.815 592.665 525.558 592.688C524.81 592.831 524.12 593.19 523.573 593.721C523.049 594.141 522.591 594.636 522.213 595.19C521.608 596.119 521.226 597.176 521.098 598.277C520.875 599.268 521.045 600.307 521.574 601.174C521.579 600.238 521.638 599.302 521.75 598.373C521.953 597.396 522.35 596.471 522.92 595.653C523.255 595.183 523.648 594.758 524.09 594.388C524.508 594.006 525.011 593.731 525.558 593.585C525.639 593.575 525.721 593.589 525.794 593.625C525.866 593.661 525.926 593.719 525.966 593.789C526.037 593.983 526.037 594.195 525.966 594.388C525.747 594.912 525.468 595.409 525.137 595.87C524.593 596.781 524.049 597.665 523.505 598.59C522.977 599.402 522.582 600.292 522.335 601.229Z" fill="#263238"/>
<path d="M521.574 601.869C521.669 601.869 521.574 600.74 520.431 599.461C519.646 598.612 518.605 598.041 517.467 597.835C516.329 597.629 515.154 597.799 514.121 598.319C514.012 598.414 513.926 598.531 513.867 598.662C513.808 598.794 513.779 598.937 513.781 599.081C513.794 599.329 513.885 599.566 514.039 599.761C514.26 600.018 514.517 600.242 514.801 600.427C515.273 600.763 515.779 601.05 516.31 601.284C517.197 601.691 518.143 601.957 519.112 602.073C519.996 602.262 520.916 602.176 521.75 601.828C521.75 601.678 520.744 601.746 519.221 601.42C518.342 601.226 517.492 600.92 516.691 600.509C516.215 600.271 515.761 599.993 515.331 599.679C515.123 599.548 514.936 599.387 514.774 599.203C514.678 599.013 514.774 599.067 514.774 599.013C514.965 598.895 515.177 598.817 515.399 598.781C515.66 598.726 515.923 598.685 516.188 598.659C516.694 598.626 517.202 598.663 517.698 598.768C518.549 598.96 519.339 599.362 519.996 599.937C521.111 600.944 521.424 601.923 521.574 601.869Z" fill="#263238"/>
<path opacity="0.6" d="M542.354 601.46C542.354 601.961 542.503 602.45 542.781 602.866C543.059 603.282 543.454 603.606 543.916 603.797C544.378 603.989 544.887 604.039 545.377 603.941C545.868 603.844 546.319 603.603 546.673 603.249C547.026 602.895 547.267 602.444 547.365 601.954C547.463 601.463 547.412 600.954 547.221 600.492C547.03 600.03 546.705 599.635 546.289 599.357C545.873 599.079 545.384 598.931 544.884 598.931C544.213 598.931 543.57 599.197 543.095 599.672C542.621 600.146 542.354 600.789 542.354 601.46Z" fill="white"/>
<path opacity="0.3" d="M514.61 592.974L518.704 597.476L535.908 580.435L533.514 577.32L514.61 592.974Z" fill="black"/>
<path d="M461.652 238.286C473.033 234.331 485.319 233.773 497.012 236.681C502.194 237.973 507.457 240.122 510.775 244.311C514.706 249.261 515.195 256.007 515.807 262.303C517.036 275.111 519.394 287.786 522.852 300.179C525.735 310.488 529.38 320.579 530.944 331.228C532.508 341.877 531.787 353.151 526.388 362.399C518.065 376.652 500.371 382.949 483.874 383.235C475.198 383.371 466.303 382.106 458.606 378.08C450.908 374.055 444.502 367.023 442.626 358.551" fill="#EAECC6"/>
<g opacity="0.5">
<path d="M461.652 238.286C473.033 234.331 485.319 233.773 497.012 236.681C502.194 237.973 507.457 240.122 510.775 244.311C514.706 249.261 515.195 256.007 515.807 262.303C517.036 275.111 519.394 287.786 522.852 300.179C525.735 310.488 529.38 320.579 530.944 331.228C532.508 341.877 531.787 353.151 526.388 362.399C518.065 376.652 500.371 382.949 483.874 383.235C475.198 383.371 466.303 382.106 458.606 378.08C450.908 374.055 444.502 367.023 442.626 358.551" fill="black"/>
</g>
<path d="M484.337 251.342C486.123 252.902 487.709 254.68 489.056 256.632C490.456 258.799 491.684 261.073 492.728 263.432C494.007 266.362 495.474 269.206 497.121 271.946C498.813 274.722 501.145 277.053 503.921 278.746C506.242 280.133 508.973 280.667 511.646 280.255C513.436 279.999 515.113 279.229 516.474 278.039C516.835 277.712 517.155 277.342 517.426 276.937C517.616 276.665 517.698 276.515 517.67 276.502C517.643 276.488 517.208 277.019 516.31 277.767C514.944 278.803 513.323 279.452 511.618 279.643C509.095 279.943 506.544 279.378 504.383 278.039C501.74 276.371 499.519 274.113 497.896 271.443C496.272 268.732 494.805 265.931 493.503 263.051C492.406 260.674 491.1 258.398 489.6 256.251C488.581 254.797 487.368 253.489 485.996 252.362C485.506 251.929 484.944 251.584 484.337 251.342Z" fill="#E0E0E0"/>
<path d="M508.232 378.733C508.267 378.376 508.267 378.016 508.232 377.658C508.232 376.87 508.232 375.863 508.232 374.612C508.232 371.974 508.042 368.138 507.838 363.419C507.416 353.899 506.682 340.898 505.539 326.509C504.397 312.12 503.105 299.091 502.044 289.694C501.5 284.988 501.037 281.18 500.684 278.569C500.521 277.331 500.371 276.325 500.262 275.55C500.229 275.195 500.16 274.844 500.058 274.502C500.016 274.855 500.016 275.211 500.058 275.563C500.126 276.352 500.222 277.358 500.317 278.596C500.589 281.316 500.956 285.124 501.391 289.748C502.302 299.173 503.513 312.188 504.642 326.577C505.77 340.966 506.613 354.008 507.185 363.446C507.47 368.084 507.701 371.878 507.865 374.626L508.082 377.672C508.101 378.029 508.151 378.384 508.232 378.733Z" fill="#E0E0E0"/>
<path d="M504.845 320.96C504.845 321.191 510.054 321.137 516.419 320.335C522.784 319.532 527.843 318.335 527.802 318.118C527.761 317.9 522.648 318.689 516.31 319.478C509.973 320.267 504.832 320.661 504.845 320.96Z" fill="#E0E0E0"/>
<path d="M509.048 320.783C508.634 321.547 508.393 322.392 508.341 323.258C508.184 324.18 508.088 325.112 508.055 326.046C508.008 326.656 508.111 327.267 508.354 327.828C508.506 328.169 508.752 328.46 509.062 328.667C509.373 328.874 509.736 328.989 510.109 328.998C510.321 329.007 510.533 328.966 510.726 328.878C510.92 328.791 511.09 328.66 511.224 328.494C511.459 328.199 511.597 327.838 511.618 327.461C511.637 326.871 511.554 326.282 511.374 325.72C511.146 324.788 510.836 323.878 510.449 323C509.782 321.545 509.157 320.77 509.089 320.824C509.281 321.651 509.554 322.458 509.905 323.231C510.191 324.088 510.431 324.96 510.626 325.842C510.751 326.326 510.806 326.825 510.789 327.325C510.789 327.787 510.517 328.073 510.136 328.073C509.225 328.073 508.858 326.971 508.898 325.992C508.939 325.013 508.898 324.047 508.98 323.272C509.107 322.449 509.13 321.612 509.048 320.783Z" fill="#E0E0E0"/>
<path d="M450.434 243.209L505.075 236.829C512.229 235.993 517.352 229.516 516.517 222.362L515.332 212.217C514.497 205.062 508.02 199.94 500.865 200.775L446.224 207.155C439.07 207.991 433.947 214.468 434.783 221.622L435.967 231.767C436.803 238.921 443.28 244.044 450.434 243.209Z" fill="#455A64"/>
<path d="M499.949 201.647C499.949 201.647 499.786 201.539 499.433 201.43C498.91 201.281 498.371 201.198 497.828 201.185C495.796 201.193 493.825 201.878 492.225 203.13C489.775 204.854 487.831 207.202 486.594 209.93C485.212 213.303 484.679 216.965 485.044 220.592C485.241 224.252 486.524 227.77 488.729 230.697C490.54 233.088 493.028 234.879 495.869 235.838C497.76 236.489 499.771 236.712 501.758 236.491C502.298 236.431 502.83 236.322 503.349 236.164C503.703 236.055 503.88 235.987 503.866 235.96C503.853 235.933 503.105 236.069 501.731 236.151C499.804 236.234 497.88 235.929 496.074 235.253C493.393 234.263 491.062 232.509 489.369 230.207C487.308 227.381 486.112 224.017 485.928 220.524C485.554 217.042 486.02 213.521 487.288 210.256C488.449 207.643 490.261 205.372 492.551 203.66C494.032 202.436 495.857 201.704 497.774 201.566C499.188 201.471 499.936 201.729 499.949 201.647Z" fill="#263238"/>
<path d="M468.724 204.408L477.156 203.579C474.902 204.268 472.971 205.745 471.716 207.74C470.493 209.724 469.705 211.944 469.404 214.255C467.894 223.951 473.049 234.369 481.331 239.619L474.531 240.516C474.531 240.516 455.083 223.149 468.67 204.408" fill="#263238"/>
<path d="M459.177 222.251C461.35 222.853 463.633 222.937 465.845 222.498C468.056 222.058 470.134 221.107 471.912 219.72C473.69 218.334 475.119 216.55 476.084 214.512C477.049 212.474 477.523 210.239 477.469 207.985C477.374 203.81 475.47 199.539 476.775 195.554C477.673 192.834 479.958 190.686 480.733 187.925C481.875 183.777 479.373 179.602 476.993 176.038C475.576 173.671 473.811 171.53 471.757 169.687C470.723 168.769 469.5 168.09 468.174 167.697C466.849 167.305 465.453 167.209 464.086 167.416" fill="#263238"/>
<path d="M420.553 167.783C420.784 170.938 418.703 173.767 416.595 176.134C414.487 178.5 412.162 180.989 411.699 184.117C410.897 189.679 416.337 194.834 415.222 200.342C414.61 203.293 412.202 205.659 411.767 208.638C411.332 211.616 412.896 214.35 414.814 216.539C416.731 218.729 419.057 220.619 420.757 222.931C422.371 225.545 423.737 228.304 424.837 231.173C425.935 234.062 427.932 236.523 430.535 238.19C434.615 240.394 440.273 239.36 443.374 242.774C446.474 246.187 450.065 246.582 453.764 249.07" fill="#263238"/>
<path d="M469.2 172.611C469.282 169.755 466.63 167.538 463.964 166.491C461.298 165.444 458.32 165.036 455.94 163.431C453.832 162.071 452.418 159.814 450.636 157.991C448.433 155.769 445.679 154.172 442.657 153.362C439.635 152.553 436.452 152.56 433.433 153.383C430.414 154.205 427.667 155.815 425.474 158.046C423.28 160.277 421.718 163.051 420.947 166.083C419.927 170.163 420.621 174.991 423.844 177.711C427.584 180.853 433.119 180.159 437.906 179.18C442.694 178.201 448.106 177.235 452.105 180.05C454.512 181.737 455.886 184.498 457.368 187.054C458.85 189.611 460.686 192.209 463.474 193.161C466.262 194.113 470.043 192.467 470.152 189.53" fill="#263238"/>
<path d="M457.844 173.21C459.037 173.336 460.14 173.907 460.931 174.809C461.722 175.712 462.145 176.879 462.114 178.079L459.258 242.869C459.136 250.526 447.957 254.824 439.756 254.633C431.487 254.443 431.215 250.376 431.12 243.1C430.943 230.942 430.957 226.372 430.957 226.44C430.957 226.508 420.498 224.686 418.363 211.045C417.302 204.245 417.67 193.134 418.268 184.049C418.798 175.889 424.238 165.839 432.398 166.709L457.844 173.21Z" fill="#FFBE9D"/>
<path d="M420.852 191.842C420.845 192.299 421.017 192.741 421.333 193.072C421.648 193.402 422.081 193.596 422.538 193.61C422.759 193.625 422.981 193.596 423.19 193.524C423.4 193.452 423.593 193.34 423.759 193.193C423.924 193.047 424.059 192.868 424.156 192.669C424.252 192.47 424.308 192.253 424.32 192.032C424.327 191.578 424.157 191.138 423.844 190.808C423.531 190.477 423.102 190.282 422.647 190.264C422.425 190.248 422.202 190.276 421.991 190.346C421.78 190.417 421.585 190.529 421.418 190.676C421.251 190.823 421.115 191.002 421.018 191.202C420.92 191.402 420.864 191.62 420.852 191.842Z" fill="#263238"/>
<path d="M420.662 189.829C420.879 190.06 422.212 189.081 424.089 189.094C425.966 189.108 427.353 190.046 427.557 189.815C427.761 189.584 427.434 189.298 426.836 188.863C426.035 188.312 425.088 188.014 424.116 188.006C423.14 188.004 422.189 188.309 421.396 188.877C420.757 189.326 420.553 189.734 420.662 189.829Z" fill="#263238"/>
<path d="M439.593 192.318C439.585 192.775 439.758 193.216 440.074 193.547C440.389 193.878 440.822 194.071 441.279 194.086C441.5 194.104 441.723 194.078 441.934 194.009C442.145 193.94 442.34 193.829 442.507 193.683C442.675 193.537 442.811 193.359 442.909 193.16C443.006 192.96 443.062 192.743 443.074 192.522C443.082 192.065 442.911 191.624 442.599 191.292C442.287 190.959 441.857 190.761 441.402 190.74C441.179 190.723 440.955 190.751 440.743 190.822C440.531 190.892 440.336 191.004 440.167 191.151C439.999 191.298 439.862 191.476 439.763 191.677C439.664 191.877 439.607 192.095 439.593 192.318Z" fill="#263238"/>
<path d="M439.171 190.224C439.389 190.455 440.708 189.476 442.598 189.489C444.489 189.503 445.849 190.441 446.053 190.21C446.257 189.979 445.944 189.693 445.332 189.258C444.536 188.698 443.585 188.399 442.612 188.401C441.635 188.389 440.681 188.695 439.892 189.272C439.28 189.707 439.062 190.128 439.171 190.224Z" fill="#263238"/>
<path d="M432.303 204.177C431.311 203.86 430.283 203.668 429.243 203.606C428.767 203.606 428.318 203.47 428.237 203.143C428.188 202.646 428.297 202.146 428.55 201.715L429.991 198.057C431.309 194.973 432.382 191.789 433.201 188.537C432.983 188.455 431.202 192.617 429.23 197.812C428.74 199.172 428.291 200.328 427.87 201.498C427.561 202.072 427.47 202.738 427.611 203.374C427.681 203.544 427.789 203.695 427.925 203.818C428.062 203.94 428.224 204.03 428.4 204.082C428.666 204.156 428.94 204.197 429.216 204.204C430.242 204.318 431.279 204.308 432.303 204.177Z" fill="#263238"/>
<path d="M430.957 226.44C437.372 226.572 443.699 224.925 449.235 221.68C449.235 221.68 444.72 230.969 431.12 229.663L430.957 226.44Z" fill="#EB996E"/>
<path d="M433.092 208.706C433.454 208.258 433.923 207.909 434.455 207.69C434.987 207.471 435.566 207.39 436.138 207.454C436.553 207.496 436.956 207.619 437.322 207.818C437.689 208.016 438.012 208.286 438.274 208.61C438.524 208.925 438.671 209.309 438.696 209.711C438.72 210.112 438.62 210.512 438.41 210.854C438.107 211.19 437.711 211.427 437.272 211.536C436.834 211.645 436.373 211.621 435.948 211.466C435.057 211.152 434.239 210.662 433.541 210.025C433.327 209.878 433.147 209.688 433.01 209.467C432.936 209.367 432.896 209.245 432.896 209.12C432.896 208.996 432.936 208.874 433.01 208.774" fill="#EB996E"/>
<path d="M437.838 205.483C437.539 205.483 437.526 207.509 435.771 208.951C434.017 210.392 431.841 210.175 431.827 210.46C431.814 210.746 432.317 210.855 433.187 210.882C434.385 210.906 435.553 210.501 436.478 209.739C437.375 209.018 437.951 207.972 438.083 206.829C438.206 205.986 437.92 205.469 437.838 205.483Z" fill="#263238"/>
<path d="M438.328 186.932C438.505 187.435 440.395 187.204 442.598 187.476C444.802 187.748 446.597 188.347 446.882 187.898C447.018 187.667 446.706 187.191 445.985 186.687C445.031 186.071 443.945 185.689 442.816 185.572C441.686 185.436 440.541 185.567 439.47 185.953C438.654 186.32 438.246 186.687 438.328 186.932Z" fill="#263238"/>
<path d="M421.369 184.389C421.695 184.811 423.001 184.389 424.551 184.389C426.102 184.389 427.434 184.675 427.734 184.226C427.87 184.022 427.666 183.587 427.094 183.179C426.32 182.69 425.417 182.444 424.501 182.47C423.586 182.497 422.699 182.796 421.954 183.328C421.41 183.736 421.219 184.185 421.369 184.389Z" fill="#263238"/>
<path d="M467.364 218.076C465.479 218.456 463.531 218.382 461.68 217.86C459.83 217.338 458.13 216.383 456.722 215.074C455.313 213.765 454.236 212.14 453.58 210.333C452.924 208.525 452.707 206.588 452.948 204.68C453.383 201.335 455.178 197.88 454.022 194.752C452.486 190.563 446.61 189.312 445.046 185.096C444.149 182.662 444.965 179.819 443.931 177.439C442.898 175.059 440.613 173.903 438.314 173.074C435.951 172.464 433.697 171.487 431.637 170.177C429.706 168.681 428.509 165.852 429.746 163.758C439.937 164.972 449.945 167.401 459.558 170.993C461.774 171.823 464.114 172.829 465.433 174.801C466.752 176.773 466.793 179.602 466.643 182.118L464.93 218.838" fill="#263238"/>
<path d="M474.708 229.419C474.702 228.249 474.461 227.093 474.001 226.019C473.437 224.775 472.648 223.645 471.675 222.687C470.368 221.437 468.883 220.388 467.269 219.572C465.487 218.607 463.434 217.723 461.339 216.526C459.032 215.299 457.086 213.489 455.695 211.276C454.966 210.039 454.572 208.632 454.553 207.196C454.612 205.738 454.817 204.289 455.165 202.871C455.544 201.477 455.641 200.02 455.45 198.587C455.303 197.883 455 197.219 454.565 196.646C454.13 196.072 453.573 195.602 452.934 195.269C451.574 194.507 450.214 194.031 448.786 193.379C447.325 192.787 446.091 191.743 445.264 190.4C444.576 189.068 444.221 187.589 444.23 186.089C444.23 184.661 444.23 183.287 444.23 182.009C444.263 180.732 444.079 179.458 443.686 178.242C443.29 177.127 442.57 176.157 441.619 175.454C439.777 174.271 437.721 173.463 435.567 173.074C433.744 172.711 432.002 172.02 430.426 171.034C429.237 170.225 428.367 169.028 427.965 167.647C427.687 166.79 427.687 165.867 427.965 165.009C428.071 164.721 428.227 164.454 428.427 164.22C428.427 164.22 428.278 164.506 428.101 165.063C427.871 165.891 427.9 166.769 428.182 167.579C428.609 168.864 429.457 169.966 430.59 170.707C432.149 171.626 433.856 172.266 435.635 172.598C437.866 172.97 440.001 173.779 441.918 174.978C442.969 175.744 443.768 176.804 444.217 178.024C444.638 179.305 444.845 180.647 444.829 181.995C444.829 183.355 444.829 184.715 444.829 186.075C444.825 187.465 445.152 188.835 445.781 190.074C446.54 191.299 447.668 192.252 449.004 192.794C450.364 193.433 451.819 193.895 453.22 194.711C453.923 195.126 454.549 195.66 455.07 196.289C455.568 196.936 455.908 197.69 456.062 198.492C456.268 200.02 456.166 201.574 455.763 203.062C455.419 204.429 455.214 205.828 455.151 207.237C455.157 208.566 455.513 209.871 456.185 211.018C457.507 213.144 459.358 214.892 461.557 216.091C463.597 217.287 465.637 218.199 467.432 219.205C469.073 220.064 470.573 221.169 471.879 222.483C472.864 223.488 473.645 224.675 474.178 225.978C474.512 226.799 474.692 227.675 474.708 228.562C474.725 228.793 474.725 229.025 474.708 229.255C474.735 229.337 474.722 229.419 474.708 229.419Z" fill="#263238"/>
<path d="M434.955 238.775C434.746 238.879 434.521 238.948 434.289 238.979C434.012 239.047 433.73 239.092 433.446 239.115C433.063 239.173 432.676 239.2 432.29 239.197C429.78 239.199 427.33 238.43 425.272 236.994C423.834 236.021 422.627 234.744 421.736 233.254C420.786 231.515 420.168 229.615 419.914 227.651C419.668 225.557 419.07 223.52 418.146 221.626C417.085 219.735 415.113 218.484 413.331 216.866C411.511 215.288 410.322 213.104 409.986 210.719C409.669 208.502 410.115 206.243 411.25 204.313C412.358 202.741 413.31 201.065 414.093 199.308C414.626 197.739 414.825 196.076 414.678 194.426C414.408 192.009 413.827 189.636 412.95 187.367C412.609 186.537 412.314 185.688 412.066 184.824C412.208 185.011 412.322 185.217 412.406 185.436C412.597 185.858 412.882 186.47 413.209 187.272C414.2 189.538 414.864 191.933 415.181 194.385C415.365 196.112 415.184 197.859 414.65 199.512C413.881 201.311 412.933 203.029 411.822 204.639C410.769 206.445 410.366 208.557 410.679 210.623C410.993 212.848 412.105 214.883 413.807 216.349C415.507 217.899 417.574 219.205 418.744 221.272C419.707 223.236 420.32 225.353 420.553 227.528C420.778 229.429 421.35 231.273 422.239 232.968C423.07 234.404 424.202 235.643 425.558 236.599C427.521 238.025 429.865 238.834 432.29 238.925C434.003 238.966 434.942 238.694 434.955 238.775Z" fill="#263238"/>
<path d="M474.64 173.768C474.772 173.925 474.853 174.12 474.871 174.325C474.9 174.619 474.868 174.916 474.777 175.197C474.686 175.478 474.537 175.737 474.341 175.957C474.039 176.32 473.666 176.617 473.245 176.829C472.824 177.042 472.364 177.167 471.893 177.195C470.677 177.121 469.495 176.767 468.438 176.161C467.219 175.48 465.862 175.08 464.467 174.992C462.846 174.949 461.226 175.095 459.639 175.427C457.849 175.814 456.029 176.047 454.199 176.12C452.14 176.202 450.132 175.469 448.61 174.08C447.243 172.632 446.155 170.945 445.4 169.103C444.704 167.452 443.829 165.883 442.789 164.424C441.901 163.231 440.685 162.323 439.288 161.811C437.892 161.299 436.377 161.205 434.928 161.541C432.954 162.066 431.256 163.326 430.182 165.064C429.804 165.713 429.468 166.385 429.175 167.076C429.175 167.076 429.175 166.872 429.284 166.492C429.433 165.94 429.653 165.41 429.937 164.914C430.803 163.312 432.199 162.06 433.886 161.373C435.573 160.686 437.446 160.606 439.185 161.147C440.811 161.654 442.238 162.657 443.265 164.016C444.346 165.506 445.258 167.112 445.985 168.804C446.714 170.563 447.755 172.175 449.058 173.564C450.444 174.836 452.279 175.506 454.158 175.427C455.95 175.358 457.734 175.139 459.49 174.774C461.128 174.449 462.799 174.321 464.467 174.393C465.933 174.538 467.348 175.002 468.615 175.753C469.6 176.351 470.706 176.722 471.852 176.841C472.275 176.828 472.691 176.731 473.076 176.556C473.461 176.381 473.808 176.131 474.096 175.821C474.285 175.632 474.434 175.407 474.534 175.16C474.635 174.912 474.685 174.647 474.681 174.38C474.64 173.958 474.531 173.781 474.64 173.768Z" fill="#455A64"/>
<path d="M466.929 169.837C464.679 169.32 462.677 168.042 461.262 166.219C459.846 164.396 459.104 162.139 459.162 159.831C459.22 157.524 460.073 155.307 461.578 153.557C463.082 151.806 465.146 150.629 467.418 150.226C468.492 149.962 469.618 149.998 470.672 150.329C471.727 150.659 472.672 151.273 473.402 152.103C474.654 153.803 474.572 156.346 476.122 157.733C477.673 159.12 480.447 158.576 482.65 159.093C484.339 159.575 485.802 160.64 486.778 162.1C487.755 163.559 488.181 165.318 487.982 167.063C487.704 168.797 486.977 170.428 485.872 171.793C484.767 173.158 483.323 174.209 481.685 174.842C478.366 176.053 474.737 176.12 471.376 175.032C468.043 173.952 464.875 172.414 461.965 170.463" fill="#263238"/>
<path d="M483.317 159.977C483.187 160.877 482.847 161.735 482.324 162.479C481.192 164.367 479.625 165.957 477.754 167.117C475.884 168.284 473.763 168.993 471.566 169.184C470.656 169.325 469.725 169.255 468.846 168.98C468.846 168.858 469.88 168.98 471.471 168.681C473.551 168.365 475.546 167.629 477.333 166.518C479.115 165.398 480.655 163.932 481.862 162.207C482.8 160.888 483.208 159.936 483.317 159.977Z" fill="#455A64"/>
<path d="M476.109 175.059C474.356 172.75 472.158 170.816 469.645 169.372C467.131 167.929 464.353 167.004 461.475 166.654C462.333 166.488 463.215 166.488 464.073 166.654C468.284 167.272 472.104 169.464 474.762 172.788C475.364 173.443 475.823 174.217 476.109 175.059Z" fill="#EAECC6"/>
<path d="M377.006 323.177L354.96 318.906L358.931 324.55L349.52 329.256L341.646 325.57C342.258 327.179 343.027 328.724 343.944 330.181C345.671 333.05 348.024 335.362 349.466 335.471C349.949 337.458 350.954 339.279 352.376 340.748C353.656 342.023 355.245 342.945 356.987 343.422C358.73 343.898 360.567 343.914 362.318 343.468L377.128 338.109L377.006 323.177Z" fill="#FFBE9D"/>
<path d="M354.77 334.234C354.405 334.69 353.944 335.06 353.42 335.316C352.895 335.572 352.321 335.709 351.737 335.716C351.165 335.836 350.573 335.831 350.003 335.702C349.433 335.573 348.897 335.323 348.432 334.968C348.514 334.764 349.914 335.227 351.655 334.968C353.396 334.71 354.661 334.057 354.77 334.234Z" fill="#EB996E"/>
<path d="M357.68 338.926C357.816 339.062 356.864 340.123 355.232 340.544C354.759 340.727 354.251 340.803 353.745 340.765C353.24 340.728 352.749 340.578 352.308 340.327C352.308 340.123 353.668 340.245 355.028 339.864C356.388 339.483 357.517 338.776 357.68 338.926Z" fill="#EB996E"/>
<path d="M363.215 322.32C362.612 322.755 361.97 323.133 361.298 323.449C360.114 324.116 358.578 325.231 356.85 326.428C355.372 327.5 353.727 328.322 351.982 328.862C351.261 329.133 350.481 329.204 349.724 329.066C349.724 328.957 350.567 328.862 351.832 328.386C353.465 327.717 355.016 326.864 356.456 325.843C357.918 324.779 359.459 323.829 361.066 323C361.721 322.612 362.456 322.38 363.215 322.32Z" fill="#EB996E"/>
<path d="M496.944 359.775C496.944 359.775 497.692 360.251 499.569 363.583C505.322 373.851 507.647 398.454 485.969 420.418C457.925 448.787 425.082 495.218 425.082 495.218L399.242 604.235L360.291 595.79L380.365 482.488L435.404 380.379L496.944 359.775Z" fill="#263238"/>
<path d="M539.906 570.765L479.903 478.938L461.706 399.677L415.358 422.457L438.6 502.901L512.761 595.272L539.906 570.765Z" fill="#263238"/>
<path d="M399.269 604.235C399.278 604.05 399.31 603.867 399.364 603.691C399.446 603.31 399.554 602.793 399.69 602.127C400.017 600.767 400.466 598.713 401.05 596.129L406.15 574.124C410.516 555.519 416.541 529.883 423.205 501.568C423.722 499.365 424.238 497.176 424.728 495.136V495.04C441.728 473.28 457.218 454.036 468.615 440.368C474.327 433.568 478.992 428.128 482.297 424.402C483.915 422.539 485.248 421.152 486.132 420.2L487.138 419.125C487.37 418.88 487.492 418.758 487.506 418.772C487.412 418.911 487.308 419.043 487.193 419.166L486.227 420.281C485.384 421.274 484.092 422.688 482.487 424.579C479.25 428.319 474.654 433.813 468.996 440.681C457.694 454.431 442.272 473.729 425.286 495.476V495.34C424.81 497.38 424.293 499.569 423.762 501.772L406.64 574.247C404.396 583.481 402.56 590.975 401.322 596.197C400.683 598.754 400.194 600.767 399.84 602.154C399.677 602.82 399.541 603.323 399.446 603.704C399.403 603.886 399.344 604.064 399.269 604.235Z" fill="#455A64"/>
<path d="M469.635 388.756C469.358 388.986 469.039 389.161 468.697 389.272C467.798 389.661 466.864 389.966 465.909 390.183C462.729 390.909 459.416 390.812 456.284 389.9C453.153 388.989 450.305 387.293 448.011 384.975C447.321 384.278 446.693 383.523 446.134 382.717C445.754 382.132 445.577 381.792 445.618 381.765C445.658 381.738 446.57 382.962 448.338 384.607C450.649 386.756 453.43 388.335 456.459 389.218C459.489 390.101 462.683 390.264 465.786 389.694C468.194 389.259 469.594 388.647 469.635 388.756Z" fill="#455A64"/>
<path d="M502.724 364.48C479.25 376.843 441.157 384.227 428.971 379.209L428.549 333.989C428.549 333.989 411.862 306.476 411.794 296.072C411.699 281.112 430.372 246.881 430.372 246.881L458.401 239.36C464.046 239.24 469.629 240.54 474.64 243.141C479.882 246.046 484.148 250.437 486.899 255.761C489.651 261.085 490.766 267.105 490.103 273.061L483.045 318.05L502.724 364.48Z" fill="#EAECC6"/>
<g opacity="0.3">
<path d="M472.641 243.1C474.273 242.855 474.871 245.507 473.715 246.677C472.559 247.846 470.723 247.901 469.105 248.146C461.802 249.288 456.158 255.544 453.506 262.439C450.854 269.334 450.595 276.869 450.16 284.199C449.725 291.53 449.004 299.159 445.536 305.701C442.298 299.961 440.379 293.571 439.918 286.997C439.457 280.422 440.465 273.827 442.87 267.691C445.276 261.555 449.017 256.032 453.823 251.522C458.629 247.012 464.379 243.629 470.655 241.618" fill="black"/>
</g>
<path d="M474.64 243.141C474.64 243.141 470.56 236.49 457.069 239.374C448.038 241.305 428.291 260.277 433.799 290.754C439.307 321.232 454.077 332.03 454.077 332.03C454.077 332.03 440.477 285.369 448.038 265.01C450.018 259.262 453.552 254.175 458.248 250.315C462.944 246.454 468.618 243.971 474.64 243.141Z" fill="#263238"/>
<g opacity="0.3">
<path d="M429.066 343.59C434.656 345.386 440.014 347.67 445.835 348.405C451.66 349.361 457.634 348.736 463.134 346.596C470.601 343.414 476.15 336.614 479.006 329.011C481.862 321.409 482.256 313.086 481.494 304.994C476.394 311.304 477.006 320.647 472.668 327.515C469.948 331.799 465.528 334.723 460.986 337.035C451.046 341.814 440.086 344.079 429.066 343.631" fill="black"/>
</g>
<path d="M445.876 297.392C445.876 297.392 444.054 331.718 485.928 324.891L490.144 334.819C490.144 334.819 446.121 344.121 439.824 307.619L445.876 297.392Z" fill="#263238"/>
<path d="M484.038 254.728C485.8 257.347 486.987 260.309 487.522 263.419C488.056 266.53 487.925 269.719 487.138 272.775L476.707 319.464C472.233 332.602 459.462 340.585 451.52 341.646L377.142 349.52V321.762L446.189 311.508L449.426 273.7C449.711 268.614 452.214 259.474 455.45 255.53C459.068 251.138 464.63 245.154 473.715 246.677C479.278 247.602 481.644 251.314 484.038 254.728Z" fill="#EAECC6"/>
<path d="M486.186 274.598C486.198 274.948 486.175 275.299 486.118 275.645C486.037 276.338 485.914 277.345 485.738 278.65C485.384 281.262 484.84 285.015 484.01 289.639C483.181 294.263 482.12 299.771 480.719 305.823C480.026 308.842 479.278 312.025 478.366 315.343C477.476 318.741 476.255 322.043 474.722 325.203C473.172 328.382 471.041 331.242 468.438 333.635C466.012 335.855 463.26 337.689 460.278 339.075C455.221 341.341 449.819 342.744 444.298 343.223C439.606 343.699 435.798 343.726 433.174 343.754H430.141C429.792 343.785 429.442 343.785 429.094 343.754C429.439 343.692 429.79 343.665 430.141 343.672L433.16 343.55C435.785 343.441 439.593 343.332 444.244 342.788C449.691 342.25 455.013 340.817 459.993 338.545C462.917 337.193 465.618 335.405 468.003 333.241C470.531 330.887 472.606 328.089 474.123 324.986C475.631 321.866 476.838 318.61 477.727 315.262C478.638 312.025 479.4 308.856 480.121 305.837C481.481 299.798 482.678 294.331 483.548 289.721C484.418 285.11 485.058 281.37 485.493 278.841C485.71 277.603 485.874 276.61 485.996 275.862C486.027 275.437 486.091 275.014 486.186 274.598Z" fill="#263238"/>
<path d="M448.188 319.465C447.413 318.204 446.849 316.826 446.515 315.385C445.95 314.03 445.61 312.592 445.509 311.128C446.852 313.726 447.771 316.522 448.229 319.41L448.188 319.465Z" fill="#263238"/>
<path d="M452.418 318.403C450.949 317.715 449.652 316.707 448.623 315.452C447.428 314.362 446.498 313.013 445.903 311.508C447.065 312.592 448.155 313.751 449.167 314.976C450.328 316.043 451.414 317.188 452.418 318.403Z" fill="#263238"/>
<path d="M383.615 320.81L383.928 320.729L384.853 320.552L388.416 319.967L401.649 317.886L446.08 311.168L445.781 311.481C446.026 308.897 446.284 306.177 446.556 303.402C447.44 293.597 448.378 284.254 448.841 275.726C449.163 271.672 449.938 267.667 451.153 263.786C452.128 260.35 453.784 257.145 456.022 254.361C460.428 249.56 465.365 247.017 468.996 246.554C470.383 246.357 471.793 246.384 473.171 246.636C473.634 246.731 473.987 246.84 474.218 246.908L474.572 247.03C472.756 246.614 470.878 246.544 469.037 246.826C465.501 247.357 460.686 249.927 456.402 254.701C454.235 257.441 452.644 260.592 451.724 263.962C450.538 267.805 449.79 271.77 449.494 275.781C449.072 284.308 448.134 293.665 447.25 303.47C446.991 306.19 446.733 308.91 446.474 311.549V311.821H446.202L401.676 318.322L388.416 320.171L384.826 320.647L383.901 320.756L383.615 320.81Z" fill="#263238"/>
<path d="M426.183 343.427C425.993 343.427 425.204 337.158 424.429 329.392C423.654 321.627 423.178 315.289 423.368 315.262C424.2 319.911 424.79 324.6 425.136 329.311C425.727 333.995 426.076 338.707 426.183 343.427Z" fill="#FAFAFA"/>
<path d="M480.638 301.281C479.064 301.417 477.482 301.439 475.905 301.349C472.981 301.349 468.955 301.186 464.494 301.023C460.034 300.86 456.008 300.669 453.098 300.492C451.521 300.467 449.948 300.326 448.392 300.071C449.965 299.916 451.548 299.889 453.125 299.989C456.035 299.989 460.074 300.152 464.522 300.316C468.969 300.479 472.994 300.669 475.918 300.846C477.501 300.865 479.079 301.01 480.638 301.281Z" fill="#FAFAFA"/>
<path d="M433.418 292.4C432.409 292.66 431.373 292.797 430.331 292.808C428.427 292.944 425.775 293.04 422.851 292.985C419.927 292.931 417.275 292.727 415.371 292.509C414.333 292.463 413.304 292.285 412.311 291.979C413.342 291.877 414.381 291.877 415.412 291.979C417.316 292.074 419.954 292.183 422.865 292.237C425.775 292.292 428.414 292.237 430.318 292.237C431.354 292.177 432.394 292.232 433.418 292.4Z" fill="#FAFAFA"/>
<path d="M439.566 260.141C439.457 260.318 436.601 258.781 432.902 257.421C429.202 256.061 426.102 255.231 426.102 255.027C430.937 255.618 435.557 257.372 439.566 260.141Z" fill="#FAFAFA"/>
<path d="M493.585 344.991C493.397 345.125 493.191 345.23 492.973 345.304L491.178 346.038C489.627 346.678 487.342 347.521 484.5 348.514C477.082 351.068 469.533 353.22 461.883 354.96C454.234 356.741 446.493 358.103 438.695 359.04C435.703 359.38 433.255 359.611 431.596 359.72L429.665 359.829C429.439 359.865 429.21 359.865 428.985 359.829C429.2 359.754 429.424 359.708 429.651 359.693L431.569 359.448C433.242 359.258 435.649 358.958 438.641 358.55C444.584 357.734 452.785 356.388 461.761 354.348C470.737 352.308 478.666 349.942 484.378 348.078C487.234 347.154 489.546 346.378 491.178 345.821L493.014 345.209C493.197 345.119 493.388 345.046 493.585 344.991Z" fill="#FAFAFA"/>
<path d="M489.151 263.664C489.151 263.854 481.127 263.759 471.24 263.432C461.353 263.106 453.356 262.698 453.356 262.508C453.356 262.317 461.38 262.412 471.267 262.725C481.154 263.038 489.151 263.46 489.151 263.664Z" fill="#FAFAFA"/>
<path d="M393.312 347.467C392.788 342.951 392.498 338.412 392.442 333.867C392.146 329.339 392.092 324.8 392.278 320.267C392.802 324.782 393.093 329.321 393.149 333.867C393.444 338.394 393.499 342.934 393.312 347.467Z" fill="#FAFAFA"/>
<path d="M241.169 208.379C253.277 206.131 265.778 207.445 277.154 212.16C282.2 214.268 287.205 217.246 289.925 221.993C293.162 227.596 292.645 234.505 292.278 240.965C291.566 254.126 292.022 267.324 293.638 280.405C294.998 291.285 297.133 302.165 297.092 313.045C297.051 323.925 294.603 335.376 287.735 343.917C277.141 357.068 258.278 360.767 241.495 358.523C232.682 357.354 223.883 354.715 216.689 349.466C209.494 344.216 204.109 336.124 203.497 327.257" fill="#455A64"/>
<path d="M262.14 225.053C263.709 226.908 265.043 228.95 266.111 231.132C267.215 233.535 268.124 236.023 268.831 238.571C269.681 241.731 270.73 244.833 271.973 247.86C273.268 250.939 275.283 253.662 277.848 255.802C279.986 257.56 282.669 258.522 285.437 258.522C287.275 258.54 289.08 258.025 290.632 257.04C291.047 256.766 291.426 256.442 291.761 256.074C291.992 255.83 292.101 255.68 292.074 255.666C292.046 255.653 291.53 256.115 290.442 256.741C288.902 257.582 287.162 257.987 285.41 257.91C282.808 257.83 280.311 256.871 278.324 255.19C275.905 253.103 274.005 250.482 272.775 247.534C271.539 244.542 270.476 241.481 269.593 238.367C268.842 235.794 267.869 233.291 266.682 230.887C265.867 229.265 264.838 227.761 263.622 226.413C263.209 225.878 262.708 225.418 262.14 225.053Z" fill="#263238"/>
<path d="M266.941 357.68C267.045 357.334 267.114 356.979 267.145 356.619C267.254 355.821 267.39 354.788 267.553 353.518C267.893 350.798 268.342 346.936 268.913 342.122C269.933 332.479 271.157 319.151 272.218 304.409C273.278 289.666 273.918 276.284 274.271 266.587C274.448 261.746 274.557 257.829 274.598 255.122C274.598 253.844 274.598 252.81 274.598 252.008C274.639 251.646 274.639 251.281 274.598 250.92C274.521 251.273 274.48 251.633 274.475 251.994C274.475 252.81 274.353 253.83 274.271 255.109C274.122 257.924 273.918 261.814 273.659 266.56C273.142 276.243 272.381 289.598 271.347 304.341C270.314 319.083 269.158 332.411 268.301 342.054C267.879 346.8 267.539 350.676 267.294 353.478C267.186 354.756 267.104 355.79 267.05 356.592C266.971 356.949 266.935 357.314 266.941 357.68Z" fill="#263238"/>
<path d="M272.313 298.615C272.313 298.847 277.562 299.581 284.131 299.744C290.7 299.907 296.004 299.472 295.99 299.227C295.977 298.983 290.686 299.023 284.158 298.847C277.63 298.67 272.34 298.357 272.313 298.615Z" fill="#263238"/>
<path d="M276.583 299.2C276.053 299.91 275.682 300.727 275.495 301.594C275.2 302.484 274.964 303.393 274.788 304.314C274.639 304.921 274.639 305.556 274.788 306.163C274.891 306.534 275.096 306.868 275.38 307.128C275.664 307.387 276.015 307.562 276.393 307.632C276.606 307.665 276.824 307.65 277.031 307.589C277.238 307.528 277.428 307.422 277.59 307.279C277.881 307.019 278.077 306.67 278.147 306.286C278.242 305.691 278.242 305.085 278.147 304.491C278.052 303.533 277.87 302.586 277.603 301.662C277.443 300.783 277.08 299.954 276.542 299.241C276.596 300.112 276.746 300.974 276.991 301.811C277.155 302.711 277.264 303.619 277.318 304.531C277.394 305.036 277.394 305.55 277.318 306.055C277.209 306.517 276.923 306.775 276.556 306.721C275.618 306.558 275.414 305.361 275.604 304.423C275.794 303.484 275.944 302.451 276.107 301.703C276.371 300.892 276.531 300.051 276.583 299.2Z" fill="#263238"/>
<path d="M228.738 211.681L285.65 213.559C292.849 213.797 298.878 208.153 299.115 200.954L299.48 189.89C299.718 182.69 294.074 176.662 286.875 176.424L229.963 174.546C222.764 174.309 216.735 179.952 216.497 187.151L216.132 198.216C215.895 205.415 221.538 211.444 228.738 211.681Z" fill="#263238"/>
<path d="M285.518 177.126C285.518 177.126 285.369 176.99 285.029 176.827C284.524 176.591 283.988 176.426 283.438 176.337C281.383 176.03 279.285 176.422 277.481 177.453C274.743 178.81 272.418 180.877 270.749 183.437C268.831 186.638 267.733 190.263 267.553 193.99C267.194 197.727 267.957 201.486 269.742 204.789C271.211 207.487 273.457 209.681 276.189 211.085C278.004 212.029 280.006 212.559 282.05 212.636C282.605 212.659 283.16 212.632 283.71 212.554C283.903 212.549 284.093 212.503 284.267 212.418C284.267 212.337 283.478 212.418 282.078 212.282C280.113 212.081 278.211 211.48 276.488 210.514C273.925 209.107 271.83 206.979 270.463 204.394C268.803 201.218 268.103 197.626 268.45 194.058C268.624 190.473 269.65 186.981 271.442 183.872C273.018 181.407 275.2 179.389 277.78 178.01C279.464 176.98 281.428 176.504 283.397 176.65C284.784 176.8 285.491 177.208 285.518 177.126Z" fill="#455A64"/>
<path d="M253.49 175.168L262.14 175.603C259.763 175.967 257.595 177.174 256.034 179.003C254.492 180.824 253.356 182.952 252.702 185.246C249.696 194.766 253.327 206.162 260.862 212.731L253.858 212.622C253.858 212.622 236.817 192.059 253.436 175.168" fill="#455A64"/>
<path d="M211.222 158.875C207.686 150.321 207.495 135.47 212.894 127.595C218.294 119.721 228.412 114.621 237.701 112.635C239.229 112.165 240.864 112.165 242.393 112.635C243.137 112.915 243.749 113.465 244.107 114.176C244.465 114.886 244.542 115.705 244.324 116.47C246.129 115.231 248.129 114.303 250.24 113.723C251.302 113.423 252.421 113.391 253.498 113.628C254.575 113.865 255.577 114.365 256.414 115.083C256.818 115.453 257.143 115.899 257.371 116.397C257.598 116.894 257.723 117.433 257.738 117.979C257.753 118.526 257.659 119.071 257.459 119.58C257.26 120.089 256.96 120.554 256.578 120.945C257.886 120.459 259.309 120.37 260.669 120.687C262.028 121.005 263.264 121.715 264.222 122.73C265.181 123.745 265.819 125.02 266.058 126.395C266.298 127.771 266.127 129.186 265.567 130.465C264.295 133.084 262.531 135.434 260.372 137.387C258.427 139.182 258.101 141.032 258.427 143.657" fill="#263238"/>
<path d="M213.438 143.194L210.99 195.527C210.889 197.637 211.218 199.744 211.956 201.723C212.695 203.701 213.828 205.508 215.288 207.035C216.747 208.562 218.501 209.775 220.444 210.603C222.387 211.43 224.478 211.853 226.59 211.847C230.587 211.827 234.424 210.271 237.307 207.502C240.19 204.733 241.899 200.962 242.08 196.969C242.257 193.025 242.42 189.734 242.461 189.339C242.461 189.339 255.843 188.714 257.421 175.576C258.182 169.225 258.699 156.019 259.012 144.065C259.177 137.873 257.005 131.846 252.927 127.184C248.85 122.522 243.166 119.566 237.007 118.905L235.742 118.769C222.006 118.089 213.738 129.404 213.438 143.194Z" fill="#FFBE9D"/>
<path d="M242.542 189.149C236.458 188.611 230.672 186.272 225.923 182.43C225.923 182.43 228.548 190.658 241.794 190.889L242.542 189.149Z" fill="#EB996E"/>
<path d="M254.32 152.456C254.272 152.948 254.032 153.402 253.654 153.719C253.275 154.037 252.787 154.194 252.294 154.156C252.053 154.149 251.816 154.094 251.597 153.994C251.379 153.894 251.182 153.75 251.02 153.573C250.857 153.395 250.732 153.187 250.652 152.96C250.572 152.733 250.538 152.492 250.553 152.252C250.601 151.762 250.838 151.311 251.214 150.994C251.59 150.676 252.075 150.518 252.566 150.552C252.806 150.561 253.043 150.617 253.261 150.718C253.48 150.818 253.677 150.961 253.84 151.138C254.003 151.315 254.129 151.523 254.212 151.749C254.294 151.975 254.331 152.215 254.32 152.456Z" fill="#263238"/>
<path d="M255.53 150.212C255.272 150.43 253.966 149.233 251.94 149.015C249.914 148.798 248.336 149.655 248.146 149.383C247.955 149.111 248.322 148.839 249.03 148.444C249.969 147.935 251.042 147.726 252.103 147.846C253.156 147.957 254.147 148.4 254.932 149.111C255.503 149.6 255.68 150.117 255.53 150.212Z" fill="#263238"/>
<path d="M234.369 150.96C234.32 151.449 234.083 151.901 233.707 152.218C233.332 152.536 232.847 152.694 232.356 152.66C232.115 152.651 231.879 152.595 231.66 152.494C231.442 152.394 231.245 152.251 231.082 152.074C230.919 151.896 230.792 151.689 230.71 151.463C230.627 151.237 230.591 150.996 230.602 150.756C230.647 150.265 230.883 149.811 231.26 149.493C231.636 149.175 232.123 149.018 232.614 149.056C232.856 149.061 233.094 149.115 233.315 149.214C233.535 149.313 233.733 149.456 233.897 149.634C234.061 149.812 234.187 150.021 234.268 150.249C234.349 150.477 234.384 150.718 234.369 150.96Z" fill="#263238"/>
<path d="M235.62 148.444C235.362 148.662 234.056 147.465 232.03 147.247C230.003 147.03 228.412 147.886 228.222 147.614C228.031 147.342 228.412 147.084 229.106 146.676C230.05 146.168 231.127 145.96 232.193 146.078C233.244 146.195 234.233 146.637 235.022 147.342C235.579 147.886 235.742 148.349 235.62 148.444Z" fill="#263238"/>
<path d="M241.346 164.234C242.445 164.006 243.57 163.924 244.691 163.989C245.208 163.989 245.711 163.989 245.834 163.608C245.94 163.081 245.878 162.534 245.657 162.044L244.555 157.964C243.032 152.143 241.998 147.37 242.23 147.315C242.461 147.261 243.889 151.926 245.412 157.76C245.766 159.12 246.119 160.562 246.446 161.84C246.686 162.504 246.686 163.23 246.446 163.894C246.354 164.07 246.223 164.221 246.063 164.337C245.902 164.453 245.716 164.529 245.521 164.56C245.228 164.6 244.93 164.6 244.637 164.56C243.53 164.595 242.424 164.486 241.346 164.234Z" fill="#263238"/>
<path d="M235.28 164.995C235.606 164.995 235.375 167.198 237.089 168.966C238.802 170.734 241.169 170.734 241.169 171.047C241.169 171.36 240.611 171.414 239.618 171.333C238.329 171.215 237.123 170.641 236.218 169.714C235.351 168.833 234.863 167.647 234.858 166.41C234.79 165.485 235.09 164.968 235.28 164.995Z" fill="#263238"/>
<path d="M236.994 140.583C236.735 141.114 234.75 140.583 232.342 140.665C229.935 140.747 227.95 141.127 227.691 140.665C227.582 140.407 227.963 139.931 228.793 139.482C229.893 138.926 231.11 138.641 232.342 138.652C233.572 138.64 234.787 138.915 235.892 139.455C236.722 139.849 237.116 140.325 236.994 140.583Z" fill="#263238"/>
<path d="M255.422 144.282C255.014 144.704 253.681 144.078 252.008 143.874C250.335 143.67 248.88 143.874 248.608 143.33C248.486 143.086 248.758 142.65 249.424 142.283C250.306 141.866 251.291 141.716 252.258 141.851C253.224 141.986 254.13 142.401 254.864 143.045C255.462 143.575 255.598 144.078 255.422 144.282Z" fill="#263238"/>
<path d="M213.52 153.055C213.302 152.932 204.775 149.41 204.082 158.427C203.388 167.443 212.609 166.287 212.636 166.029C212.663 165.771 213.52 153.055 213.52 153.055Z" fill="#FFBE9D"/>
<path d="M210.093 162.398C210.093 162.398 209.93 162.493 209.644 162.602C209.268 162.747 208.851 162.747 208.474 162.602C207.919 162.187 207.484 161.633 207.214 160.994C206.944 160.356 206.848 159.658 206.938 158.97C206.976 158.195 207.185 157.438 207.55 156.754C207.656 156.48 207.826 156.236 208.046 156.042C208.266 155.848 208.53 155.71 208.814 155.638C208.999 155.604 209.19 155.635 209.354 155.727C209.519 155.819 209.645 155.966 209.712 156.142C209.821 156.4 209.712 156.577 209.794 156.59C209.875 156.604 209.998 156.454 209.957 156.087C209.92 155.859 209.81 155.65 209.644 155.489C209.409 155.281 209.101 155.173 208.787 155.19C208.412 155.235 208.054 155.377 207.749 155.601C207.445 155.825 207.202 156.123 207.046 156.468C206.599 157.219 206.346 158.07 206.312 158.943C206.202 159.744 206.332 160.558 206.685 161.285C207.039 162.011 207.6 162.616 208.298 163.023C208.536 163.113 208.792 163.149 209.046 163.128C209.3 163.107 209.546 163.029 209.766 162.901C210.052 162.615 210.12 162.411 210.093 162.398Z" fill="#EB996E"/>
<path d="M266.111 127.473C266.274 139.251 251.491 143.031 245.711 136.014C242.991 132.763 240.747 128.779 236.871 127.119C235.545 126.604 234.129 126.359 232.707 126.399C231.284 126.438 229.884 126.762 228.589 127.351H228.507C224.645 128.996 222.115 133.131 221.218 137.238C219.98 142.963 220.51 148.118 218.606 153.326C218.411 154.107 217.961 154.801 217.328 155.299C216.186 155.992 214.608 155.19 213.833 154.115C212.644 152.291 212.015 150.159 212.024 147.982C211.605 143.06 212.169 138.104 213.683 133.402C215.22 128.688 218.104 124.528 221.979 121.435C226.974 117.748 233.206 116.144 239.36 116.96C245.494 117.817 251.203 120.581 255.68 124.862C257.843 126.745 259.503 129.138 260.508 131.825" fill="#263238"/>
<path d="M257.04 120.305C257.463 120.249 257.893 120.3 258.291 120.455C259.398 120.826 260.378 121.499 261.12 122.4C262.267 123.709 262.938 125.367 263.024 127.105C263.04 129.25 262.26 131.324 260.834 132.926C259.465 134.528 257.675 135.715 255.666 136.353C254.05 136.871 252.358 137.115 250.662 137.074C249.529 137.054 248.401 136.935 247.289 136.721C246.871 136.681 246.465 136.56 246.092 136.367C246.092 136.245 247.846 136.639 250.648 136.585C252.286 136.553 253.909 136.273 255.462 135.755C257.339 135.113 259.01 133.981 260.304 132.477C261.617 131.004 262.351 129.106 262.371 127.133C262.329 125.522 261.761 123.97 260.753 122.713C260.08 121.852 259.194 121.182 258.182 120.768C257.489 120.414 257.04 120.373 257.04 120.305Z" fill="#455A64"/>
<path d="M251.328 115.709C251.328 115.709 251.668 115.627 252.185 115.926C252.53 116.154 252.822 116.454 253.038 116.807C253.254 117.16 253.39 117.555 253.436 117.966C253.524 119.176 253.188 120.379 252.484 121.366C251.741 122.581 250.824 123.68 249.764 124.63C247.831 126.374 245.494 127.608 242.964 128.221C241.94 128.539 240.861 128.641 239.795 128.52C239.795 128.384 240.992 128.33 242.828 127.745C245.211 127.017 247.406 125.778 249.261 124.114C250.28 123.207 251.181 122.174 251.94 121.04C252.595 120.175 252.948 119.119 252.946 118.034C252.924 117.676 252.83 117.326 252.672 117.004C252.513 116.681 252.292 116.394 252.022 116.158C251.6 115.831 251.314 115.763 251.328 115.709Z" fill="#455A64"/>
<path d="M213.085 244.215L217.314 213.289L156.536 225.529L101.225 206.312L86.2784 221.68L145.139 251.994C150.389 254.502 156.304 255.26 162.017 254.157L213.085 244.215Z" fill="#FFBE9D"/>
<path d="M101.225 206.312C101.225 206.312 80.0768 196.193 78.7168 195.84C77.6696 195.568 61.7032 194.725 54.4272 194.344C53.8569 194.339 53.3055 194.548 52.8812 194.929C52.4569 195.31 52.1904 195.836 52.1342 196.403C52.0779 196.971 52.236 197.539 52.5772 197.996C52.9185 198.453 53.4183 198.765 53.9784 198.873H54.2504C58.3304 199.213 67.252 201.253 67.252 201.253L63.172 210.773C62.9743 211.244 62.9405 211.769 63.0761 212.262C63.2117 212.755 63.5089 213.188 63.92 213.493L76.228 222.591C77.8396 223.324 79.6157 223.619 81.3777 223.447C83.1397 223.275 84.8253 222.642 86.2648 221.612L91.7048 222.727L101.225 206.312Z" fill="#FFBE9D"/>
<path d="M63.1312 211.371C63.512 213.153 67.7552 216.811 70.9784 216.811C71.6893 216.823 72.3802 216.576 72.9232 216.117C73.1809 215.876 73.3612 215.564 73.4411 215.22C73.521 214.876 73.497 214.516 73.372 214.186C73.145 213.78 72.8231 213.435 72.4336 213.18L65.28 207.563" fill="#FFBE9D"/>
<path d="M65.28 207.563C66.3459 208.133 67.3527 208.807 68.2856 209.576L71.4272 211.929C72.0256 212.391 72.624 212.785 73.2768 213.384C73.4645 213.558 73.6153 213.768 73.7204 214.002C73.8255 214.235 73.8828 214.488 73.8888 214.744C73.8903 215.238 73.7223 215.718 73.4128 216.104C73.1002 216.456 72.7105 216.731 72.2741 216.908C71.8377 217.085 71.3664 217.159 70.8968 217.124C70.0837 217.082 69.2856 216.889 68.544 216.553C67.3126 216.022 66.1775 215.291 65.1848 214.39C64.5076 213.793 63.9252 213.096 63.4576 212.323C63.1448 211.752 63.1312 211.371 63.172 211.371C63.2128 211.371 63.3216 211.684 63.6888 212.173C64.2203 212.856 64.8322 213.473 65.5112 214.009C66.5026 214.815 67.6069 215.47 68.7888 215.954C69.4666 216.238 70.1896 216.4 70.924 216.43C71.2825 216.457 71.6425 216.403 71.977 216.271C72.3115 216.139 72.6117 215.933 72.8552 215.669C73.0732 215.42 73.1935 215.101 73.1935 214.771C73.1935 214.441 73.0732 214.122 72.8552 213.873C72.3384 213.384 71.6448 212.908 71.1008 212.513L68 209.97C67.0096 209.268 66.0976 208.461 65.28 207.563Z" fill="#EB996E"/>
<path d="M80.2401 216.866C80.2401 216.866 79.7641 216.621 79.3289 215.941C78.7606 215.038 78.4415 214.001 78.4041 212.935C78.3493 211.877 78.5695 210.823 79.0433 209.875C79.4241 209.155 79.8049 208.815 79.8729 208.869C79.4136 210.182 79.1568 211.558 79.1113 212.949C79.2839 214.305 79.6646 215.626 80.2401 216.866Z" fill="#EB996E"/>
<path d="M71.7536 211.983C72.0471 212.536 72.5224 212.971 73.0992 213.214C73.676 213.457 74.3191 213.494 74.9199 213.318C75.5208 213.143 76.0426 212.765 76.3974 212.249C76.7521 211.733 76.9181 211.111 76.8672 210.487C76.7461 209.729 76.4713 209.004 76.0597 208.356C75.648 207.708 75.1083 207.151 74.4736 206.72L69.1832 201.933" fill="#FFBE9D"/>
<path d="M69.1832 201.878C69.9854 202.347 70.7295 202.908 71.4 203.551L73.6712 205.496C74.6617 206.28 75.5727 207.159 76.3912 208.121C76.8123 208.67 77.0924 209.315 77.2072 209.998C77.3145 210.658 77.1895 211.336 76.8536 211.915C76.5925 212.406 76.1995 212.813 75.7188 213.092C75.2381 213.371 74.689 213.51 74.1336 213.493C73.4056 213.458 72.7169 213.152 72.2024 212.636C71.8488 212.269 71.7672 211.997 71.7944 211.983C71.8216 211.97 72.012 212.16 72.3792 212.432C72.8934 212.803 73.5133 212.998 74.1472 212.99C74.5922 212.975 75.0251 212.841 75.4007 212.601C75.7762 212.362 76.0807 212.027 76.2824 211.63C76.5121 211.128 76.5907 210.57 76.5086 210.024C76.4264 209.478 76.1872 208.968 75.82 208.556C75.0382 207.645 74.188 206.795 73.2768 206.013L71.1008 203.946C70.3707 203.347 69.7255 202.651 69.1832 201.878Z" fill="#EB996E"/>
<path d="M80.8248 201.076C76.5576 202.096 72.4838 203.8 68.7616 206.122C68.5235 206.238 68.3352 206.436 68.2312 206.679C68.1224 207.033 68.3944 207.373 68.68 207.604C69.8519 208.397 71.2785 208.722 72.6784 208.515C74.0568 208.296 75.446 208.15 76.84 208.08C79.2608 208.08 81.4912 209.291 83.8304 209.943C86.1696 210.596 88.9984 210.569 90.6304 208.747" fill="#FFBE9D"/>
<path d="M90.6032 208.747C90.6032 208.747 90.6032 208.883 90.3856 209.073C90.1278 209.351 89.8299 209.59 89.5016 209.78C88.2563 210.458 86.8238 210.711 85.4216 210.501C83.4249 210.157 81.4664 209.619 79.5736 208.896C78.4784 208.555 77.3339 208.398 76.1872 208.434C74.9904 208.502 73.7528 208.801 72.3928 208.883C71.0364 209.041 69.6677 208.714 68.5304 207.958C68.2001 207.747 67.9583 207.423 67.8504 207.047C67.797 206.81 67.8359 206.562 67.9592 206.353C68.0666 206.191 68.2053 206.052 68.3672 205.945C68.8976 205.605 69.3872 205.333 69.8904 205.047C71.631 204.052 73.4504 203.201 75.3304 202.504C76.6055 202.029 77.9091 201.633 79.2336 201.321C79.7145 201.173 80.2131 201.091 80.716 201.076C80.716 201.199 78.6624 201.675 75.5072 202.967C73.6643 203.726 71.8742 204.607 70.1488 205.605C69.6728 205.891 69.156 206.203 68.6936 206.503C68.476 206.666 68.408 206.761 68.4488 206.897C68.5282 207.108 68.6769 207.285 68.8704 207.4C69.8843 208.046 71.0907 208.32 72.284 208.175C73.5488 208.094 74.8136 207.808 76.0784 207.754C77.3049 207.718 78.5286 207.893 79.696 208.271C81.5482 209.009 83.4588 209.591 85.408 210.011C86.7086 210.234 88.0459 210.073 89.2568 209.549C89.7204 209.307 90.1699 209.039 90.6032 208.747Z" fill="#EB996E"/>
<path d="M157.474 236.191C156.29 232.676 156.181 228.888 157.162 225.311C157.366 225.311 157.162 227.786 157.162 230.751C157.162 233.716 157.678 236.15 157.474 236.191Z" fill="#EB996E"/>
<path d="M210.664 198.941L193.419 218.375C193.419 218.375 184.198 285.491 183.546 290.768C182.893 296.045 181.138 312.882 181.138 317.492C181.138 322.103 177.317 355.055 177.317 355.055C177.317 355.055 250.498 370.26 262.752 355.055L258.93 326.835L262.249 256.836C262.249 256.836 267.689 208.243 242.121 196.996C242.08 196.969 225.923 206.72 210.664 198.941Z" fill="#EAECC6"/>
<path d="M253.871 203.851C253.871 203.851 248.826 198.873 232.696 203.048C215.71 207.441 206.747 223.339 210.936 268.328C214.418 305.456 229.092 310.787 229.092 310.787C229.092 310.787 221.054 254.796 222.442 231.377C224.182 201.797 253.844 209.155 253.844 209.155C258.087 207.822 253.871 203.851 253.871 203.851Z" fill="#263238"/>
<path d="M210.664 198.941L195.758 203.048L162.221 223.584L171.768 253.912L191.461 251.75L210.664 198.941Z" fill="#EAECC6"/>
<path d="M191.257 219.994C191.461 219.994 190.604 230.874 189.366 244.202C188.129 257.53 186.959 268.382 186.769 268.355C186.578 268.328 187.422 257.475 188.659 244.147C189.897 230.819 191.066 219.98 191.257 219.994Z" fill="#263238"/>
<path d="M259.529 314.255C259.529 314.255 254.769 329.555 237.946 304.287C221.122 279.018 223.475 290.319 223.475 290.319L220.034 294.399C220.034 294.399 238.544 336.083 259.311 329.555L259.529 314.255Z" fill="#263238"/>
<path opacity="0.3" d="M190.577 227.283L177.317 253.3L188.278 252.103L190.577 227.283Z" fill="black"/>
<g opacity="0.3">
<path d="M184.498 296.358C194.257 306.979 205.783 315.827 218.566 322.511C223.91 325.312 229.826 327.774 235.81 326.999C242.393 326.155 248.05 321.395 251.138 315.534C254.225 309.672 253.858 306.843 254.551 300.261C255.367 292.999 255.367 283.302 255.748 276.679C255.748 275.509 255.83 274.149 255.83 272.857C255.83 271.458 256.281 270.096 257.116 268.974C257.952 267.852 259.127 267.029 260.467 266.628C260.467 266.628 256.387 264.738 253.762 265.119C251.138 265.499 249.043 267.743 247.642 270.055C240.176 282.363 243.426 300.411 229.187 308.135C224.481 310.541 219.114 311.329 213.914 310.379C202.259 308.475 193.338 300.859 184.742 293.352" fill="black"/>
</g>
<path d="M200.6 270.885C204.168 270.885 207.06 262.19 207.06 251.464C207.06 240.738 204.168 232.043 200.6 232.043C197.032 232.043 194.14 240.738 194.14 251.464C194.14 262.19 197.032 270.885 200.6 270.885Z" fill="#FAFAFA"/>
<path d="M204 589.234L205.482 621.208C205.482 621.208 173.482 633.448 173.169 639.391L235.266 638.752L235.008 588.84L204 589.234Z" fill="#EAECC6"/>
<g opacity="0.6">
<path d="M224.713 618.324C225.309 618.501 225.82 618.891 226.149 619.42C226.477 619.949 226.6 620.58 226.494 621.194C226.339 621.799 225.959 622.322 225.43 622.656C224.902 622.99 224.265 623.109 223.652 622.989C223.021 622.794 222.482 622.375 222.137 621.812C221.792 621.249 221.663 620.58 221.775 619.929C222.006 619.315 222.463 618.814 223.053 618.528C223.642 618.242 224.319 618.193 224.944 618.392" fill="white"/>
</g>
<path opacity="0.6" d="M235.28 638.751V633.773L175.63 636.221C175.63 636.221 172.91 637.445 173.21 639.39L235.28 638.751Z" fill="white"/>
<path d="M204.517 620.908C204.517 621.207 206.054 621.33 207.55 622.268C209.046 623.206 209.862 624.485 210.147 624.362C210.433 624.24 209.957 622.499 208.107 621.37C206.258 620.242 204.449 620.622 204.517 620.908Z" fill="#263238"/>
<path d="M198.043 623.668C197.975 623.967 199.295 624.47 200.328 625.735C201.362 627 201.688 628.36 201.987 628.346C202.287 628.333 202.463 626.606 201.144 625.055C199.825 623.505 198.043 623.382 198.043 623.668Z" fill="#263238"/>
<path d="M194.48 631.503C194.752 631.503 195.16 630.048 194.358 628.388C193.555 626.729 192.141 626.09 192.018 626.348C191.896 626.607 192.78 627.477 193.378 628.851C193.977 630.224 194.113 631.476 194.48 631.503Z" fill="#263238"/>
<path d="M204.993 613.578C205.129 613.864 206.516 613.428 208.23 613.578C209.943 613.728 211.276 614.204 211.439 613.945C211.602 613.687 210.297 612.585 208.27 612.517C206.244 612.449 204.843 613.36 204.993 613.578Z" fill="#263238"/>
<path opacity="0.3" d="M204.354 595.571L204.612 601.269L235.13 600.671L235.117 595.53L204.354 595.571Z" fill="black"/>
<path d="M204.816 607.131C205.835 607.412 206.911 607.412 207.93 607.131C209.046 606.915 210.133 606.568 211.167 606.097C211.782 605.815 212.377 605.492 212.949 605.132C213.288 604.928 213.599 604.681 213.874 604.397C214.065 604.176 214.181 603.9 214.203 603.608C214.225 603.317 214.152 603.026 213.996 602.779C213.841 602.564 213.636 602.391 213.399 602.272C213.163 602.154 212.901 602.094 212.636 602.099C212.239 602.095 211.844 602.155 211.466 602.276C210.806 602.436 210.163 602.664 209.549 602.956C208.501 603.433 207.537 604.076 206.693 604.86C205.265 606.22 204.789 607.348 204.898 607.416C205.006 607.484 205.727 606.546 207.182 605.431C208.02 604.791 208.934 604.256 209.902 603.84C210.482 603.609 211.078 603.418 211.684 603.268C212.337 603.092 212.908 603.092 213.044 603.377C213.18 603.663 213.044 603.527 212.976 603.731C212.779 603.943 212.549 604.122 212.296 604.261C211.77 604.613 211.225 604.935 210.664 605.227C209.705 605.712 208.703 606.108 207.672 606.41C206.704 606.584 205.75 606.824 204.816 607.131Z" fill="#263238"/>
<path d="M205.21 607.553C205.797 606.665 206.075 605.609 205.999 604.547C206.044 603.396 205.887 602.245 205.537 601.147C205.336 600.495 205.067 599.866 204.734 599.27C204.563 598.861 204.289 598.504 203.939 598.232C203.589 597.96 203.174 597.784 202.735 597.72C202.457 597.715 202.183 597.796 201.952 597.952C201.721 598.107 201.544 598.33 201.443 598.59C201.284 598.954 201.179 599.339 201.13 599.733C201.021 600.427 201.021 601.133 201.13 601.827C201.313 602.992 201.78 604.095 202.49 605.037C203.714 606.628 204.993 606.982 205.006 606.873C205.02 606.764 204.054 606.152 203.102 604.615C202.56 603.73 202.216 602.736 202.096 601.705C202.016 601.104 202.016 600.496 202.096 599.896C202.191 599.243 202.436 598.699 202.681 598.767C202.926 598.835 203.524 599.257 203.782 599.774C204.095 600.311 204.359 600.875 204.571 601.46C204.922 602.455 205.132 603.494 205.197 604.547C205.36 606.37 205.047 607.512 205.21 607.553Z" fill="#263238"/>
<path d="M264.221 569.84L289.326 589.682C289.326 589.682 277.59 621.873 281.874 625.994L322.102 578.693L284.24 546.148L264.221 569.84Z" fill="#EAECC6"/>
<g opacity="0.6">
<path d="M299.717 573.309C300.242 572.971 300.874 572.838 301.491 572.936C302.108 573.034 302.667 573.355 303.063 573.839C303.417 574.352 303.563 574.981 303.469 575.598C303.376 576.215 303.05 576.772 302.559 577.157C301.999 577.505 301.332 577.637 300.681 577.53C300.031 577.422 299.442 577.082 299.023 576.573C298.704 575.998 298.621 575.323 298.791 574.688C298.961 574.054 299.371 573.51 299.935 573.173" fill="white"/>
</g>
<path opacity="0.6" d="M322.102 578.68L318.335 575.43L281.058 622.078C281.058 622.078 280.187 624.961 281.874 625.981L322.102 578.68Z" fill="white"/>
<path d="M288.429 590.24C288.674 590.43 289.789 589.356 291.475 588.88C293.162 588.404 294.671 588.594 294.753 588.309C294.834 588.023 293.216 587.221 291.162 587.873C289.109 588.526 288.184 590.104 288.429 590.24Z" fill="#263238"/>
<path d="M286.266 596.945C286.443 597.189 287.626 596.523 289.34 596.564C291.054 596.605 292.21 597.271 292.386 597.026C292.563 596.781 291.394 595.53 289.354 595.517C287.314 595.503 286.049 596.754 286.266 596.945Z" fill="#263238"/>
<path d="M289.803 604.806C290.034 604.642 289.15 603.337 287.382 602.861C285.614 602.385 284.199 603.024 284.308 603.282C284.417 603.541 285.668 603.459 287.11 603.881C288.551 604.302 289.585 605.023 289.803 604.806Z" fill="#263238"/>
<path d="M283.22 585.072C283.506 585.154 284.09 583.835 285.287 582.597C286.484 581.359 287.762 580.707 287.667 580.407C287.572 580.108 285.913 580.407 284.526 581.876C283.138 583.345 282.88 585.031 283.22 585.072Z" fill="#263238"/>
<path opacity="0.3" d="M269.198 573.742L273.673 577.292L293.23 553.859L289.34 550.5L269.198 573.742Z" fill="black"/>
<path d="M278.229 580.978C278.31 581.06 279.235 580.271 280.228 578.598C280.806 577.614 281.263 576.564 281.588 575.47C281.774 574.822 281.919 574.164 282.023 573.498C282.081 573.106 282.081 572.707 282.023 572.315C281.983 572.025 281.85 571.756 281.644 571.547C281.438 571.339 281.17 571.203 280.881 571.159C280.627 571.142 280.372 571.184 280.136 571.28C279.901 571.377 279.69 571.526 279.521 571.716C279.262 572.016 279.047 572.35 278.882 572.709C278.582 573.323 278.332 573.96 278.134 574.613C277.815 575.722 277.673 576.874 277.712 578.027C277.642 579.085 277.899 580.138 278.446 581.046C278.623 581.046 278.351 579.863 278.446 578.027C278.551 576.335 279.015 574.684 279.806 573.185C280.106 572.573 280.459 572.152 280.786 572.206C281.112 572.26 280.949 572.206 281.017 572.478C281.055 572.772 281.055 573.069 281.017 573.362C280.93 573.984 280.812 574.602 280.663 575.212C280.402 576.259 280.042 577.279 279.589 578.258C279.063 579.127 278.608 580.036 278.229 580.978Z" fill="#263238"/>
<path d="M278.8 580.965C278.895 580.965 278.46 579.741 277.046 578.395C276.203 577.607 275.233 576.968 274.176 576.504C273.546 576.231 272.89 576.022 272.218 575.879C271.797 575.743 271.348 575.717 270.914 575.805C270.48 575.894 270.077 576.092 269.742 576.382C269.568 576.596 269.458 576.856 269.424 577.13C269.39 577.404 269.435 577.682 269.552 577.932C269.727 578.288 269.952 578.618 270.218 578.912C270.678 579.442 271.215 579.9 271.81 580.272C272.809 580.891 273.942 581.26 275.114 581.346C277.127 581.455 278.229 580.734 278.161 580.639C277.178 580.708 276.192 580.708 275.21 580.639C274.183 580.466 273.205 580.077 272.34 579.496C271.833 579.158 271.375 578.751 270.98 578.286C270.545 577.783 270.3 577.252 270.504 577.103C270.726 576.973 270.972 576.891 271.228 576.863C271.483 576.835 271.742 576.861 271.986 576.94C272.593 577.057 273.189 577.225 273.768 577.443C274.741 577.834 275.656 578.356 276.488 578.993C278.011 580.068 278.664 581.06 278.8 580.965Z" fill="#263238"/>
<path d="M194.602 453.968C194.602 453.968 196.262 377.59 194.602 377.59C192.943 377.59 181.166 370.872 181.166 370.872L166.45 484.364C166.45 484.364 165.09 497.107 180.894 506.124C196.697 515.141 267.158 577.782 267.158 577.782L291.04 548.692C291.04 548.692 244.65 500.344 225.76 484.364C210.8 471.92 194.602 453.968 194.602 453.968Z" fill="#263238"/>
<path d="M237.81 436.166L239.428 424.076C239.428 424.076 251.042 399.596 252.702 389.178C254.361 378.761 253.273 356.185 253.273 356.185H179.901C179.901 356.185 180.214 439.022 189.067 462.265C189.067 462.265 193.555 506.737 194.222 510.463C195.582 518.378 200.518 599.353 200.518 599.353L237.51 597.993C237.51 597.993 240.72 523.546 238.15 502.412C236.885 491.94 236.286 480.788 236.001 471.567C235.652 459.737 236.257 447.899 237.81 436.166Z" fill="#263238"/>
<path d="M181.9 380.352C181.914 380.469 181.914 380.588 181.9 380.705C181.9 380.991 181.9 381.344 181.968 381.78C181.968 382.772 182.077 384.16 182.158 385.86C182.294 389.436 182.566 394.618 182.934 401.01C183.668 413.794 185.042 431.433 187.014 450.868C188.986 470.302 191.202 487.86 192.766 500.576C193.542 506.886 194.126 512.013 194.602 515.631C194.806 517.372 194.97 518.732 195.078 519.711C195.078 520.146 195.16 520.5 195.187 520.785C195.214 521.071 195.187 521.152 195.187 521.152C195.143 521.038 195.111 520.92 195.092 520.799L194.929 519.738L194.317 515.658C193.827 512.054 193.12 506.927 192.25 500.63C190.563 487.928 188.319 470.37 186.293 450.922C184.266 431.474 182.988 413.821 182.376 401.024C182.063 394.618 181.886 389.436 181.832 385.86C181.832 384.105 181.832 382.732 181.764 381.78V380.719C181.797 380.592 181.842 380.469 181.9 380.352Z" fill="#455A64"/>
<path d="M235.933 478.394C236.038 478.786 236.111 479.186 236.15 479.59C236.259 480.434 236.422 481.59 236.626 483.045C236.994 486.064 237.456 490.43 237.878 495.829C238.748 506.641 239.401 521.669 239.646 538.152C239.89 554.635 239.646 569.69 238.993 580.516C238.721 585.956 238.367 590.308 238.082 593.327C237.918 594.782 237.782 595.938 237.687 596.795C237.659 597.202 237.6 597.607 237.51 598.006C237.474 597.598 237.474 597.189 237.51 596.782C237.578 595.925 237.66 594.769 237.769 593.3C237.973 590.281 238.245 585.902 238.462 580.489C238.911 569.677 239.102 554.649 238.898 538.166C238.694 521.682 238.082 506.668 237.334 495.87C236.98 490.43 236.599 486.091 236.314 483.072C236.164 481.617 236.042 480.461 235.96 479.604C235.918 479.202 235.909 478.797 235.933 478.394Z" fill="#455A64"/>
<path d="M250.362 202.15C250.362 202.15 262.371 205.346 264.928 223.244C267.485 241.142 262.752 246.255 262.752 246.255C262.752 246.255 264.697 212.935 249.778 208.393L250.362 202.803" fill="#263238"/>
<path d="M168.545 260.603L106.556 259.393L107.277 262.398L168.246 263.296L168.545 260.603Z" fill="#263238"/>
<path d="M243.712 207.767C241.387 207.2 238.939 207.415 236.749 208.379C231.73 210.487 222.537 216.539 221.884 233.73L220.823 261.433L260.467 266.628C260.467 266.628 263.84 213.126 243.712 207.767Z" fill="#EAECC6"/>
<path d="M170.748 266.465L221.068 281.588L221.816 261.351L251.926 265.73L250.24 298.642C250.069 303.339 248.359 307.849 245.373 311.479C242.388 315.108 238.292 317.656 233.716 318.729C228.454 319.96 222.922 319.158 218.226 316.485L164.818 286.117L170.748 266.465Z" fill="#FFBE9D"/>
<path d="M260.467 266.628C260.467 266.628 260.467 266.451 260.467 266.152C260.467 265.853 260.467 265.363 260.399 264.792C260.399 263.581 260.304 261.881 260.222 259.705C260.086 255.285 259.883 248.975 259.638 241.182C259.515 237.293 259.393 233.022 259.271 228.453C259.271 227.31 259.202 226.141 259.162 224.957C259.162 224.386 259.053 223.801 258.985 223.203C258.917 222.605 258.781 222.033 258.618 221.449C257.615 217.655 255.426 214.281 252.37 211.82C249.314 209.358 245.551 207.938 241.631 207.767C238.816 207.74 236.052 208.529 233.675 210.038C231.22 211.603 229.125 213.67 227.528 216.104C225.248 219.604 223.706 223.533 222.999 227.65C222.304 231.596 221.891 235.586 221.762 239.591C221.544 247.397 221.34 254.741 221.15 261.419L220.891 261.106L249.547 265.023L257.598 266.152L259.76 266.56L257.679 266.329L249.669 265.349L220.769 261.732H220.51V261.46C220.674 254.769 220.796 247.438 221.054 239.618C221.163 235.578 221.568 231.55 222.265 227.569C222.985 223.357 224.564 219.339 226.902 215.764C228.554 213.245 230.724 211.108 233.267 209.494C235.757 207.911 238.654 207.088 241.604 207.128C244.367 207.245 247.071 207.966 249.526 209.24C251.981 210.513 254.128 212.308 255.816 214.499C257.394 216.511 258.542 218.825 259.189 221.299C259.339 221.897 259.434 222.509 259.556 223.121C259.679 223.733 259.678 224.332 259.733 224.944C259.733 226.127 259.733 227.31 259.814 228.466C259.91 233.09 259.991 237.401 260.073 241.332C260.209 249.138 260.318 255.462 260.399 259.882C260.399 262.017 260.399 263.704 260.467 264.887V266.247C260.48 266.374 260.48 266.501 260.467 266.628Z" fill="#263238"/>
<path d="M171.768 267.063L159.691 258.128C157.488 256.496 154.061 256.768 151.327 256.591C145.887 256.102 137.006 259.311 136.666 259.937L140.311 262.847L116.838 262.126C117.643 263.724 118.866 265.073 120.377 266.031C121.888 266.989 123.631 267.52 125.419 267.566C125.419 267.566 126.167 272.87 132.981 273.877C132.981 273.877 134.749 278.174 138.543 279.426C138.543 279.426 139.291 284.226 145.343 283.968L165.92 286.266L171.768 267.063Z" fill="#FFBE9D"/>
<path d="M140.08 268.396C137.604 268.611 135.112 268.584 132.641 268.314C130.159 268.297 127.685 268.033 125.256 267.525C127.728 267.326 130.214 267.353 132.682 267.607C135.167 267.642 137.643 267.906 140.08 268.396Z" fill="#EB996E"/>
<path d="M146.037 274.053C143.889 274.402 141.709 274.521 139.536 274.407C137.363 274.521 135.183 274.402 133.035 274.053C135.183 273.696 137.363 273.578 139.536 273.7C141.709 273.578 143.89 273.696 146.037 274.053Z" fill="#EB996E"/>
<path d="M152.415 279.385C150.268 279.742 148.088 279.861 145.914 279.739C143.746 279.861 141.57 279.742 139.427 279.385C141.571 279.036 143.746 278.917 145.914 279.031C148.088 278.917 150.267 279.036 152.415 279.385Z" fill="#EB996E"/>
<path d="M224.4 291.856C223.407 290.335 222.655 288.669 222.17 286.919C221.44 285.253 220.981 283.48 220.81 281.669C221.639 283.27 222.3 284.951 222.782 286.688C223.503 288.348 224.045 290.081 224.4 291.856Z" fill="#EB996E"/>
<path d="M227.977 289.898C226.579 288.603 225.309 287.177 224.182 285.641C222.873 284.263 221.702 282.76 220.687 281.153C222.248 282.296 223.625 283.672 224.767 285.233C226.059 286.623 227.141 288.194 227.977 289.898Z" fill="#EB996E"/>
</svg>
