<svg width="180" height="60" viewBox="0 0 180 60" fill="none" xmlns="http://www.w3.org/2000/svg">
<g clip-path="url(#clip0_1230_5021)">
<path d="M173.333 59.4H6.66676C3.00002 59.4 0 56.0588 0 51.975V7.425C0 3.34122 3.00002 0 6.66676 0H173.333C177 0 180 3.34122 180 7.425V51.975C180 56.0588 177 59.4 173.333 59.4Z" fill="#3A3A3A"/>
<path d="M173.333 0H6.66676C3.00002 0 0 3.34122 0 7.425V51.975C0 56.0588 3.00002 59.4 6.66676 59.4H173.333C177 59.4 180 56.0588 180 51.975V7.425C180 3.34122 177 0 173.333 0ZM173.333 1.1874C176.421 1.1874 178.933 3.98577 178.933 7.425V51.975C178.933 55.4142 176.421 58.2126 173.333 58.2126H6.66676C3.57874 58.2126 1.06724 55.4142 1.06724 51.975V7.425C1.06724 3.98577 3.57874 1.1874 6.66676 1.1874H173.333Z" fill="#A2A2A1"/>
<path d="M142.58 42.7H145.068V26.031H142.58V42.7ZM164.989 32.036L162.137 39.2624H162.052L159.092 32.036H156.412L160.852 42.136L158.32 47.7545H160.915L167.756 32.0365L164.989 32.036ZM150.879 40.8066C150.066 40.8066 148.928 40.3987 148.928 39.391C148.928 38.1045 150.344 37.6113 151.566 37.6113C152.659 37.6113 153.175 37.8467 153.839 38.1686C153.646 39.7128 152.316 40.8066 150.879 40.8066ZM151.18 31.6714C149.379 31.6714 147.514 32.4651 146.742 34.2235L148.95 35.1453C149.422 34.2235 150.3 33.9235 151.223 33.9235C152.51 33.9235 153.818 34.6948 153.839 36.0677V36.2391C153.388 35.9817 152.423 35.5959 151.244 35.5959C148.863 35.5959 146.44 36.9036 146.44 39.3483C146.44 41.5785 148.392 43.0154 150.579 43.0154C152.251 43.0154 153.175 42.2648 153.752 41.3853H153.839V42.6727H156.242V36.2817C156.242 33.3224 154.031 31.6714 151.18 31.6714ZM135.804 34.0651H132.266V28.3518H135.804C137.664 28.3518 138.72 29.8914 138.72 31.2084C138.72 32.5001 137.664 34.0651 135.804 34.0651ZM135.74 26.0314H129.779V42.7004H132.266V36.3855H135.74C138.498 36.3855 141.208 34.3897 141.208 31.209C141.208 28.0289 138.498 26.0314 135.74 26.0314ZM103.233 40.8094C101.515 40.8094 100.076 39.3698 100.076 37.3944C100.076 35.396 101.515 33.9361 103.233 33.9361C104.93 33.9361 106.262 35.3961 106.262 37.3944C106.262 39.3698 104.93 40.8094 103.233 40.8094ZM106.09 32.9691H106.004C105.446 32.3034 104.371 31.7019 103.019 31.7019C100.183 31.7019 97.5839 34.194 97.5839 37.3944C97.5839 40.573 100.183 43.0432 103.019 43.0432C104.371 43.0432 105.446 42.4416 106.004 41.7547H106.09V42.5703C106.09 44.7406 104.93 45.8999 103.061 45.8999C101.537 45.8999 100.592 44.8046 100.205 43.8811L98.0356 44.7831C98.658 46.2861 100.312 48.1341 103.062 48.1341C105.983 48.1341 108.454 46.4153 108.454 42.2264V32.0454H106.09L106.09 32.9691ZM110.172 42.6995H112.663V26.0305H110.172V42.6995ZM116.336 37.2007C116.272 35.0096 118.034 33.8929 119.301 33.8929C120.289 33.8929 121.126 34.3871 121.406 35.0955L116.336 37.2007ZM124.069 35.3101C123.596 34.0435 122.157 31.7019 119.215 31.7019C116.293 31.7019 113.866 34.0002 113.866 37.3726C113.866 40.5517 116.272 43.0433 119.493 43.0433C122.092 43.0433 123.597 41.4543 124.22 40.5303L122.287 39.2413C121.642 40.1866 120.762 40.8095 119.493 40.8095C118.227 40.8095 117.324 40.2294 116.745 39.0909L124.327 35.955L124.069 35.3101ZM63.6598 33.4419V35.8476H69.4163C69.2445 37.2008 68.7934 38.1887 68.1059 38.8762C67.2679 39.7136 65.9576 40.6376 63.6597 40.6376C60.1154 40.6376 57.3447 37.7809 57.3447 34.2367C57.3447 30.6925 60.1154 27.8354 63.6597 27.8354C65.5715 27.8354 66.9674 28.5874 67.9985 29.554L69.6959 27.8567C68.2563 26.4822 66.3449 25.4297 63.6597 25.4297C58.8045 25.4297 54.7234 29.3821 54.7234 34.2367C54.7234 39.0908 58.8045 43.0433 63.6597 43.0433C66.2799 43.0433 68.2564 42.184 69.8027 40.5731C71.3923 38.9835 71.8865 36.7497 71.8865 34.9451C71.8865 34.3872 71.8432 33.8717 71.7573 33.4419H63.6598ZM78.4318 40.8094C76.713 40.8094 75.2308 39.3917 75.2308 37.3726C75.2308 35.332 76.713 33.9362 78.4318 33.9362C80.1499 33.9362 81.6321 35.332 81.6321 37.3726C81.6321 39.3917 80.1499 40.8094 78.4318 40.8094ZM78.4318 31.7019C75.2948 31.7019 72.7391 34.0861 72.7391 37.3726C72.7391 40.6376 75.2948 43.0433 78.4318 43.0433C81.5676 43.0433 84.1238 40.6376 84.1238 37.3726C84.1238 34.0861 81.5676 31.7019 78.4318 31.7019ZM90.8488 40.8094C89.1312 40.8094 87.6485 39.3917 87.6485 37.3726C87.6485 35.332 89.1313 33.9362 90.8488 33.9362C92.5676 33.9362 94.0493 35.332 94.0493 37.3726C94.0493 39.3917 92.5676 40.8094 90.8488 40.8094ZM90.8488 31.7019C87.713 31.7019 85.1573 34.0861 85.1573 37.3726C85.1573 40.6376 87.713 43.0433 90.8488 43.0433C93.9858 43.0433 96.5415 40.6376 96.5415 37.3726C96.5415 34.0861 93.9858 31.7019 90.8488 31.7019Z" fill="white"/>
<path d="M27.622 28.5988L13.428 43.6648C13.4285 43.6679 13.4296 43.6705 13.4301 43.6737C13.8654 45.3097 15.3597 46.5143 17.1331 46.5143C17.842 46.5143 18.5076 46.3227 19.0784 45.9862L19.1237 45.9596L35.1017 36.7396L27.622 28.5988Z" fill="#EB3131"/>
<path d="M41.983 26.0337L41.9694 26.0244L35.0712 22.0254L27.2995 28.941L35.0982 36.7387L41.96 32.7795C43.163 32.13 43.9797 30.8618 43.9797 29.3993C43.9797 27.9473 43.1741 26.6853 41.983 26.0337Z" fill="#F6B60B"/>
<path d="M13.426 15.0693C13.3407 15.384 13.2958 15.7136 13.2958 16.0558V42.6788C13.2958 43.0205 13.3401 43.3512 13.4265 43.6647L28.1105 28.9837L13.426 15.0693Z" fill="#5778C5"/>
<path d="M27.727 29.3672L35.0743 22.0221L19.1143 12.7687C18.5342 12.4212 17.8571 12.2207 17.1326 12.2207C15.3592 12.2207 13.8629 13.4275 13.4275 15.0654C13.427 15.067 13.427 15.0681 13.427 15.0695L27.727 29.3672Z" fill="#3BAD49"/>
<path d="M63.193 15.7423H59.3035V16.7048H62.2181C62.1389 17.4903 61.8264 18.1069 61.2993 18.5548C60.7723 19.0028 60.0993 19.2278 59.3035 19.2278C58.4306 19.2278 57.691 18.9236 57.0849 18.3195C56.4911 17.7029 56.1891 16.9403 56.1891 16.0216C56.1891 15.103 56.4911 14.3404 57.0849 13.7238C57.691 13.1197 58.4306 12.8176 59.3035 12.8176C59.7515 12.8176 60.1785 12.8947 60.5701 13.0634C60.9618 13.2321 61.2764 13.4676 61.5222 13.7697L62.2618 13.0301C61.9263 12.6488 61.5014 12.3572 60.9742 12.1447C60.4471 11.9321 59.8972 11.8301 59.3034 11.8301C58.1389 11.8301 57.1515 12.2343 56.3452 13.0405C55.5389 13.8488 55.1348 14.8446 55.1348 16.0216C55.1348 17.1986 55.5389 18.1966 56.3452 19.0029C57.1514 19.8091 58.1389 20.2133 59.3034 20.2133C60.5263 20.2133 61.5013 19.8216 62.2513 19.0257C62.9117 18.3634 63.2491 17.4675 63.2491 16.3467C63.2491 16.1571 63.2263 15.9549 63.193 15.7423ZM64.6998 12.0091V20.034H69.385V19.0486H65.731V16.5029H69.0268V15.5404H65.731V12.9967H69.385V12.0091L64.6998 12.0091ZM75.9548 12.9967V12.0091H70.4403V12.9967H72.682V20.034H73.7132V12.9967H75.9548ZM80.9473 12.0091H79.9161V20.034H80.9473V12.0091ZM87.7539 12.9967V12.0091H82.2395V12.9967H84.481V20.034H85.5122V12.9967H87.7539ZM98.1599 13.053C97.364 12.2342 96.3891 11.8301 95.2245 11.8301C94.0579 11.8301 93.083 12.2342 92.2871 13.0405C91.4912 13.8363 91.0997 14.8342 91.0997 16.0216C91.0997 17.209 91.4913 18.207 92.2871 19.0029C93.0829 19.809 94.0579 20.2133 95.2245 20.2133C96.3786 20.2133 97.364 19.809 98.1599 19.0029C98.9557 18.207 99.3473 17.2091 99.3473 16.0216C99.3473 14.8446 98.9557 13.8487 98.1599 13.053ZM93.0267 13.7238C93.6204 13.1196 94.3496 12.8175 95.2245 12.8175C96.0974 12.8175 96.8266 13.1196 97.4099 13.7238C98.0036 14.3175 98.2952 15.0924 98.2952 16.0216C98.2952 16.9529 98.0036 17.7257 97.4099 18.3195C96.8266 18.9236 96.0974 19.2277 95.2245 19.2277C94.3496 19.2277 93.6204 18.9236 93.0267 18.3195C92.4454 17.7132 92.1538 16.9529 92.1538 16.0216C92.1538 15.0924 92.4454 14.33 93.0267 13.7238ZM101.797 15.0363L101.754 13.4883H101.797L105.876 20.034H106.953V12.0091H105.922V16.7048L105.966 18.2528H105.922L102.022 12.0091H100.766V20.034H101.797V15.0363Z" fill="white" stroke="white" stroke-width="0.26666" stroke-miterlimit="10"/>
</g>
<defs>
<clipPath id="clip0_1230_5021">
<rect width="180" height="59.4" fill="white"/>
</clipPath>
</defs>
</svg>
